<svg viewBox="0 0 512 512" fill="none" xmlns="http://www.w3.org/2000/svg">
<path d="M475.807 414.386C479.276 407.745 481.249 400.204 481.249 392.206V373.123C481.249 352.367 468.028 334.644 449.566 327.924C445.847 307.452 434.042 289.546 416.754 277.989C420.22 271.35 422.192 263.811 422.192 255.817V236.734C422.192 210.222 400.623 188.653 374.111 188.653C347.599 188.653 326.03 210.222 326.03 236.734V255.817C326.03 263.812 328.002 271.351 331.469 277.991C325.234 282.161 319.714 287.163 315.024 292.811C310.306 287.113 304.793 282.139 298.634 278.007C302.105 271.363 304.081 263.819 304.081 255.817V236.734C304.081 210.222 282.512 188.653 256 188.653C229.488 188.653 207.919 210.222 207.919 236.734V255.817C207.919 263.819 209.894 271.364 213.367 278.007C207.173 282.161 201.634 287.172 196.897 292.912C192.199 287.224 186.693 282.182 180.519 278.013C183.993 271.368 185.971 263.821 185.971 255.817V236.734C185.971 210.222 164.401 188.653 137.888 188.653C111.377 188.653 89.8073 210.222 89.8073 236.734V255.817C89.8073 263.812 91.7798 271.351 95.2467 277.991C77.9725 289.543 66.1555 307.453 62.4336 327.925C43.9713 334.644 30.7511 352.367 30.7511 373.123V392.206C30.7511 400.203 32.7246 407.745 36.1935 414.386C14.9674 428.566 2.12695 452.174 2.12695 478.077V502.084C2.12695 507.561 6.56675 512.001 12.0439 512.001H130.156H248.269H381.845H499.958C505.434 512.001 509.875 507.561 509.875 502.084V478.077C509.874 452.174 497.034 428.565 475.807 414.386V414.386ZM461.417 373.123V392.206C461.417 407.782 448.745 420.454 433.169 420.454C417.594 420.454 404.922 407.782 404.922 392.206V373.123C404.922 357.547 417.594 344.876 433.169 344.876C448.745 344.876 461.417 357.548 461.417 373.123ZM428.527 325.27C404.185 327.613 385.087 348.177 385.087 373.123V392.206C385.087 400.208 387.064 407.754 390.536 414.398C384.389 418.524 378.884 423.5 374.166 429.192C369.482 423.557 363.949 418.565 357.695 414.386C361.164 407.745 363.137 400.203 363.137 392.206V373.123C363.137 348.178 344.04 327.614 319.699 325.27C323.718 312.205 332.465 300.743 344.181 293.406C352.401 299.964 362.802 303.898 374.111 303.898C385.419 303.898 395.82 299.964 404.04 293.406C415.765 300.746 424.508 312.203 428.527 325.27V325.27ZM286.808 392.206V373.123C286.808 357.548 299.479 344.876 315.055 344.876C330.63 344.876 343.302 357.548 343.302 373.123V392.206C343.302 407.782 330.63 420.454 315.055 420.454C299.479 420.454 286.808 407.782 286.808 392.206ZM345.864 236.734C345.864 221.157 358.536 208.487 374.111 208.487C389.687 208.487 402.358 221.158 402.358 236.734V255.817C402.358 271.393 389.687 284.064 374.111 284.064C358.536 284.064 345.864 271.393 345.864 255.817V236.734ZM227.751 236.734C227.751 221.157 240.423 208.487 255.999 208.487C271.574 208.487 284.246 221.158 284.246 236.734V255.817C284.246 271.393 271.574 284.064 255.999 284.064C240.422 284.064 227.75 271.393 227.75 255.817V236.734H227.751ZM226.071 293.406C234.291 299.964 244.692 303.898 256 303.898C267.308 303.898 277.709 299.964 285.928 293.407C293.119 297.883 299.201 303.867 303.806 311.011C301.464 316.378 299.725 322.045 298.656 327.925C280.194 334.644 266.974 352.368 266.974 373.123V392.206C266.974 400.203 268.947 407.744 272.416 414.385C266.164 418.561 260.633 423.55 255.951 429.18C251.236 423.49 245.73 418.523 239.577 414.396C243.05 407.752 245.026 400.207 245.026 392.205V373.123C245.026 352.362 231.799 334.636 213.33 327.92C212.254 322.111 210.499 316.47 208.133 311.107C212.745 303.92 218.85 297.9 226.071 293.406V293.406ZM168.695 392.206V373.123C168.695 357.547 181.367 344.876 196.944 344.876C212.52 344.876 225.192 357.548 225.192 373.123V392.206C225.192 407.782 212.52 420.454 196.944 420.454C181.367 420.454 168.695 407.782 168.695 392.206V392.206ZM109.639 236.734C109.639 221.157 122.311 208.487 137.886 208.487C153.463 208.487 166.135 221.158 166.135 236.734V255.817C166.135 271.393 153.463 284.064 137.887 284.064C122.311 284.064 109.639 271.393 109.639 255.817V236.734ZM107.957 293.406C116.177 299.964 126.578 303.898 137.887 303.898C149.196 303.898 159.598 299.964 167.817 293.406C179.543 300.746 188.283 312.202 192.301 325.27C167.959 327.613 148.861 348.177 148.861 373.123V392.206C148.861 400.203 150.835 407.745 154.304 414.386C148.053 418.561 142.525 423.548 137.843 429.177C133.128 423.486 127.619 418.523 121.465 414.396C124.937 407.752 126.912 400.208 126.912 392.206V373.123C126.912 348.178 107.815 327.614 83.4744 325.27C87.4957 312.205 96.2414 300.743 107.957 293.406ZM50.5839 373.123C50.5839 357.547 63.2558 344.876 78.8322 344.876C94.4077 344.876 107.08 357.548 107.08 373.123V392.206C107.08 407.782 94.4077 420.454 78.8322 420.454C63.2558 420.454 50.5839 407.782 50.5839 392.206V373.123ZM21.9598 478.077C21.9598 458.222 32.1583 440.175 48.8971 429.792C57.1172 436.352 67.521 440.288 78.8313 440.288C90.1395 440.288 100.54 436.354 108.76 429.796C115.945 434.268 122.02 440.24 126.622 447.374C122.478 456.865 120.238 467.27 120.238 478.077V492.167H21.9598V478.077ZM140.072 478.077C140.072 458.222 150.27 440.175 167.008 429.792C175.229 436.352 185.632 440.288 196.943 440.288C208.251 440.288 218.652 436.354 226.872 429.797C234.053 434.267 240.129 440.243 244.732 447.378C240.589 456.868 238.35 467.272 238.35 478.078V492.168H140.071V478.077H140.072ZM258.184 478.077C258.184 458.222 268.382 440.175 285.121 429.792C293.341 436.352 303.745 440.288 315.055 440.288C326.365 440.288 336.769 436.353 344.989 429.792C361.727 440.176 371.927 458.229 371.927 478.077V492.167H258.184V478.077ZM490.04 492.166H391.761V478.076C391.761 467.274 389.522 456.87 385.378 447.379C389.983 440.245 396.066 434.263 403.239 429.795C411.458 436.353 421.859 440.286 433.167 440.286C444.478 440.286 454.881 436.351 463.101 429.79C479.841 440.173 490.039 458.22 490.039 478.075V492.166H490.04Z" fill="#00A878"/>
<path d="M175.914 84.3044C181.065 82.444 183.734 76.7596 181.874 71.6088C175.638 54.3414 177.89 40.6799 188.76 29.8447C202.168 16.4777 223.988 16.4777 237.397 29.8447C247.828 40.2416 264.17 40.2426 274.601 29.8447C288.011 16.4777 309.829 16.4777 323.239 29.8447C332.973 39.5484 335.779 51.4715 331.813 66.2943C321.876 103.438 275.787 141.368 256.007 148.849C250.348 146.691 242.453 141.974 234.214 135.78C229.836 132.488 223.618 133.369 220.328 137.748C217.037 142.126 217.918 148.343 222.296 151.633C234.133 160.532 245.193 166.645 253.441 168.848C254.279 169.072 255.14 169.184 256 169.184C256.861 169.184 257.721 169.072 258.56 168.848C271.759 165.323 291.854 151.813 309.755 134.429C322.048 122.492 343.748 98.434 350.975 71.4193C356.769 49.7608 352.021 30.527 337.242 15.7974C316.112 -5.2671 281.729 -5.2671 260.6 15.7974C257.58 18.8062 253.686 18.0753 251.401 15.7974C230.269 -5.26611 195.888 -5.26413 174.758 15.7974C158.342 32.1613 154.351 53.7901 163.219 78.3443C165.079 83.4962 170.763 86.1618 175.914 84.3044V84.3044Z" fill="#00A878"/>
<path d="M195.818 103.141C190.341 103.141 185.905 107.58 185.905 113.058C185.905 118.535 190.348 122.974 195.825 122.974C201.302 122.974 205.742 118.535 205.742 113.058C205.742 107.58 201.302 103.141 195.825 103.141H195.818Z" fill="#00A878"/>
</svg>
