<svg viewBox="0 0 512 512" fill="none" xmlns="http://www.w3.org/2000/svg">
<path d="M499.768 192.944L259.768 64.944C257.408 63.688 254.6 63.688 252.24 64.944L12.24 192.944C9.624 194.336 8 197.048 8 200C8 202.952 9.624 205.664 12.232 207.056L80 243.2V344H96V251.736L120 264.536V313.136C106.232 316.712 96 329.128 96 344C96 351.312 98.56 357.976 102.704 363.376C98.336 378.312 96 393.712 96 409.296V432C96 435.032 97.712 437.8 100.424 439.16L109.264 443.584C115.056 446.472 121.528 448 128 448C134.472 448 140.944 446.472 146.736 443.576L155.576 439.152C158.288 437.8 160 435.032 160 432V409.296C160 393.712 157.664 378.312 153.296 363.376C157.44 357.976 160 351.312 160 344C160 329.128 149.768 316.712 136 313.136V273.072L252.232 335.064C253.416 335.688 254.704 336 256 336C257.296 336 258.584 335.688 259.768 335.064L416 251.736V340.048C371.504 373.576 316.544 392 260.792 392H251.216C223.752 392 196.6 387.64 170.504 379.04L165.504 394.24C193.2 403.368 222.048 408 251.208 408H260.784C321.376 408 381.08 387.512 428.912 350.312C430.856 348.8 432 346.472 432 344V243.2L499.768 207.056C502.376 205.664 504 202.952 504 200C504 197.048 502.376 194.336 499.768 192.944V192.944ZM144 427.056L139.576 429.264C132.416 432.84 123.576 432.84 116.416 429.264L112 427.056V409.296C112 397.272 113.464 385.36 116.352 373.728C119.968 375.152 123.88 376 128 376C132.12 376 136.032 375.152 139.648 373.728C142.536 385.36 144 397.272 144 409.296V427.056ZM144 344C144 352.824 136.824 360 128 360C119.176 360 112 352.824 112 344C112 335.176 119.176 328 128 328C136.824 328 144 335.176 144 344ZM256 318.928L141.504 257.864L240.616 205.008C245.168 206.864 250.352 208 256 208C273.944 208 288 197.456 288 184C288 170.544 273.944 160 256 160C238.056 160 224 170.544 224 184C224 187.656 225.112 191.064 226.984 194.144L124.504 248.8L33 200L256 81.064L479 200L256 318.928ZM240 184C240 180.736 246.232 176 256 176C265.768 176 272 180.736 272 184C272 187.264 265.768 192 256 192C246.232 192 240 187.264 240 184Z" fill="#00A878"/>
</svg>
