<svg xmlns="http://www.w3.org/2000/svg" width="1919.791" height="555.774" viewBox="0 0 1919.791 555.774">
  <g id="Group_280" data-name="Group 280" transform="translate(-1.15 -246.382)">
    <path id="Path_1" data-name="Path 1" d="M951.227,822.814s310.35-50.034,479.345-59.1,491.279-9.252,491.279-9.252v302.591H950.212V822.814" transform="translate(-0.912 -302.572)" fill="#00a878"/>
    <path id="Path_2" data-name="Path 2" d="M307.793,795.41a2718.631,2718.631,0,0,1,1683.425,259.881H306.226Z" transform="translate(-305.076 -300.815)" fill="#00805b"/>
    <rect id="Rectangle_266" data-name="Rectangle 266" width="85.993" height="19.215" transform="translate(38.476 317.115)" fill="#fbfffe" opacity="0.2" style="mix-blend-mode: overlay;isolation: isolate"/>
    <rect id="Rectangle_267" data-name="Rectangle 267" width="85.993" height="19.215" transform="translate(182.414 317.115)" fill="#fbfffe" opacity="0.2" style="mix-blend-mode: overlay;isolation: isolate"/>
    <g id="Group_113" data-name="Group 113" transform="translate(175.047 312.076)">
      <circle id="Ellipse_40" data-name="Ellipse 40" cx="71.979" cy="71.979" r="71.979" fill="#00a878"/>
      <line id="Line_26" data-name="Line 26" y2="178.19" transform="translate(71.732 37.855)" fill="none" stroke="#002e20" stroke-linecap="round" stroke-linejoin="round" stroke-width="3.459"/>
      <line id="Line_27" data-name="Line 27" x2="44.331" y2="44.331" transform="translate(27.648 63.58)" fill="none" stroke="#002e20" stroke-linecap="round" stroke-linejoin="round" stroke-width="3.459"/>
      <line id="Line_28" data-name="Line 28" y1="43.443" x2="43.443" transform="translate(71.978 64.024)" fill="none" stroke="#002e20" stroke-linecap="round" stroke-linejoin="round" stroke-width="3.459"/>
    </g>
    <path id="Path_109" data-name="Path 109" d="M1193,613.382" transform="translate(105.728 -367)" fill="none" stroke="#002e20" stroke-linecap="round" stroke-linejoin="round" stroke-width="0.94"/>
    <ellipse id="Ellipse_43" data-name="Ellipse 43" cx="8.33" cy="2.821" rx="8.33" ry="2.821" transform="translate(368.01 499.188)" fill="#faad14"/>
    <ellipse id="Ellipse_44" data-name="Ellipse 44" cx="8.33" cy="2.821" rx="8.33" ry="2.821" transform="translate(212.452 596.325)" fill="#faad14"/>
    <ellipse id="Ellipse_45" data-name="Ellipse 45" cx="8.33" cy="2.821" rx="8.33" ry="2.821" transform="translate(756.961 604.336)" fill="#faad14"/>
    <ellipse id="Ellipse_47" data-name="Ellipse 47" cx="8.33" cy="2.821" rx="8.33" ry="2.821" transform="translate(1718.526 604.336)" fill="#faad14"/>
    <g id="Group_118" data-name="Group 118" transform="translate(81.948 447.606)">
      <g id="Group_117" data-name="Group 117">
        <path id="Path_118" data-name="Path 118" d="M453.29,922.4a45.375,45.375,0,0,1-5.607,7.523c-3.353,3.6-17.223,18.536-36.142,18.152-17.591-.355-30.053-13.787-33.514-17.522-37.166-40.081-3.228-164.534,28.426-177.816a14.027,14.027,0,0,1,5.294-1.149C442.894,751.411,482.933,873.155,453.29,922.4Z" transform="translate(-361.776 -751.588)" fill="#00a878"/>
        <line id="Line_35" data-name="Line 35" y2="186.633" transform="translate(49.766 63.144)" fill="none" stroke="#002e20" stroke-linecap="round" stroke-linejoin="round" stroke-width="2.821"/>
      </g>
      <line id="Line_36" data-name="Line 36" y1="32.7" x2="42.428" transform="translate(49.766 106.576)" fill="none" stroke="#002e20" stroke-linecap="round" stroke-linejoin="round" stroke-width="2.821"/>
      <line id="Line_37" data-name="Line 37" x2="35.682" y2="35.682" transform="translate(14.157 82.718)" fill="none" stroke="#002e20" stroke-linecap="round" stroke-linejoin="round" stroke-width="2.821"/>
    </g>
    <g id="Group_120" data-name="Group 120" transform="translate(1086.971 414.449)">
      <g id="Group_119" data-name="Group 119">
        <path id="Path_119" data-name="Path 119" d="M1139.549,899.626a45.444,45.444,0,0,1-5.609,7.524c-3.351,3.6-17.223,18.535-36.14,18.153-17.591-.357-30.053-13.789-33.515-17.523-37.166-40.081-3.228-164.533,28.425-177.816a14.033,14.033,0,0,1,5.295-1.149C1129.152,728.636,1169.192,850.382,1139.549,899.626Z" transform="translate(-1048.034 -728.815)" fill="#00a878"/>
        <line id="Line_38" data-name="Line 38" y2="186.633" transform="translate(49.767 63.143)" fill="none" stroke="#002e20" stroke-linecap="round" stroke-linejoin="round" stroke-width="2.821"/>
      </g>
      <line id="Line_39" data-name="Line 39" y1="32.7" x2="42.428" transform="translate(49.767 106.576)" fill="none" stroke="#002e20" stroke-linecap="round" stroke-linejoin="round" stroke-width="2.821"/>
      <line id="Line_40" data-name="Line 40" x2="35.682" y2="35.682" transform="translate(14.158 82.717)" fill="none" stroke="#002e20" stroke-linecap="round" stroke-linejoin="round" stroke-width="2.821"/>
    </g>
    <g id="Group_122" data-name="Group 122" transform="translate(1600.997 459.981)">
      <g id="Group_121" data-name="Group 121">
        <path id="Path_120" data-name="Path 120" d="M1489.778,930.836a45.39,45.39,0,0,1-5.609,7.523c-3.351,3.6-17.221,18.536-36.141,18.152-17.591-.355-30.053-13.789-33.513-17.523-37.168-40.08-3.229-164.533,28.426-177.816a14.024,14.024,0,0,1,5.293-1.149C1479.383,759.846,1519.421,881.591,1489.778,930.836Z" transform="translate(-1398.263 -760.024)" fill="#00805b"/>
        <line id="Line_41" data-name="Line 41" y2="215.794" transform="translate(49.767 63.143)" fill="none" stroke="#002e20" stroke-linecap="round" stroke-linejoin="round" stroke-width="2.821"/>
      </g>
      <line id="Line_42" data-name="Line 42" y1="32.7" x2="42.428" transform="translate(49.767 106.576)" fill="none" stroke="#002e20" stroke-linecap="round" stroke-linejoin="round" stroke-width="2.821"/>
      <line id="Line_43" data-name="Line 43" x2="35.682" y2="35.682" transform="translate(14.158 82.718)" fill="none" stroke="#002e20" stroke-linecap="round" stroke-linejoin="round" stroke-width="2.821"/>
    </g>
    <g id="Group_124" data-name="Group 124" transform="translate(1742.632 360.976)">
      <g id="Group_123" data-name="Group 123">
        <path id="Path_121" data-name="Path 121" d="M1587.153,862.9a45.378,45.378,0,0,1-5.609,7.523c-3.351,3.6-17.221,18.535-36.141,18.152-17.59-.355-30.053-13.789-33.514-17.522-37.165-40.081-3.227-164.533,28.426-177.816a14.034,14.034,0,0,1,5.295-1.149C1576.757,691.909,1616.8,813.655,1587.153,862.9Z" transform="translate(-1495.639 -692.088)" fill="#00805b"/>
        <line id="Line_44" data-name="Line 44" y2="186.633" transform="translate(49.766 63.143)" fill="none" stroke="#002e20" stroke-linecap="round" stroke-linejoin="round" stroke-width="2.821"/>
      </g>
      <line id="Line_45" data-name="Line 45" y1="32.7" x2="42.428" transform="translate(49.766 106.576)" fill="none" stroke="#002e20" stroke-linecap="round" stroke-linejoin="round" stroke-width="2.821"/>
      <line id="Line_46" data-name="Line 46" x2="35.682" y2="35.682" transform="translate(14.157 82.718)" fill="none" stroke="#002e20" stroke-linecap="round" stroke-linejoin="round" stroke-width="2.821"/>
    </g>
    <g id="Group_141" data-name="Group 141" transform="translate(385.414 360.017)">
      <ellipse id="Ellipse_50" data-name="Ellipse 50" cx="67.184" cy="14.106" rx="67.184" ry="14.106" transform="translate(252.226 178.745)" fill="#003225" opacity="0.5"/>
      <ellipse id="Ellipse_51" data-name="Ellipse 51" cx="67.184" cy="14.106" rx="67.184" ry="14.106" transform="translate(407.339 178.745)" fill="#003225" opacity="0.5"/>
      <path id="Path_122" data-name="Path 122" d="M879.849,816.033l-6.511-6.6,2.852,10.4,3.659-3.806" transform="translate(-429.493 -637.803)" fill="#002e20"/>
      <g id="Group_128" data-name="Group 128" transform="translate(429.517 39.673)">
        <g id="Group_127" data-name="Group 127" transform="translate(83.493 37.324)">
          <g id="Group_125" data-name="Group 125" transform="translate(0 20.086)">
            <path id="Path_123" data-name="Path 123" d="M921.781,768.845l7.034-9.034a4.222,4.222,0,0,1,4.641-1.42l24.779,8.087a4.221,4.221,0,0,1,1.777,6.893l-9.256,9.925a4.224,4.224,0,0,1-4.65,1.043l-22.555-8.979a4.223,4.223,0,0,1-2.34-5.536h0A4.252,4.252,0,0,1,921.781,768.845Z" transform="translate(-920.89 -758.182)" fill="#03dac5"/>
          </g>
          <g id="Group_126" data-name="Group 126" transform="translate(20.173)">
            <path id="Path_124" data-name="Path 124" d="M936.94,772.955a2.181,2.181,0,0,1-1.655-3.6l5.419-6.327V746.555a2.182,2.182,0,0,1,4.364,0v17.281a2.166,2.166,0,0,1-.525,1.418l-5.946,6.94A2.176,2.176,0,0,1,936.94,772.955Z" transform="translate(-934.76 -744.373)" fill="#03dac5"/>
          </g>
        </g>
        <path id="Path_125" data-name="Path 125" d="M963.012,810.234l-15.691-6.605q.668,20.072,1.334,40.143a8.884,8.884,0,0,1-.293,2.574q-2.171,8.195-4.343,16.387c4.266,3.836,5.546,6.484,4.925,8.295-1.014,2.959-7.409,4.595-24.107,3.111-2.335-5.171-6.24-11.373-12.7-13.249-2.467-.717-4.283-.506-6.99-.468a67.216,67.216,0,0,1-20.817-3.155c-2.248,1.663-4.443,3.939-4.593,6.762-.231,4.339,4.531,6.771,3.888,8.814-.49,1.561-4.022,2.525-14.337,1.649a6.33,6.33,0,0,1-5.795-6.393q.173-11.389.343-22.781V812.172c0-22.279,23.01-55.68,23.01-55.68.35-.6.7-1.21,1.066-1.8a13.54,13.54,0,0,1-7.224-8c-2.339-6.4-.191-13.065,4.822-14.9,5-1.83,10.948,1.862,13.288,8.26.111.333.223.652.317.986.827-.764,1.671-1.479,2.531-2.164a14.661,14.661,0,0,1-2.181-7.83c0-6.81,4.313-12.333,9.644-12.333,5.044,0,9.2,4.965,9.613,11.3A36.872,36.872,0,0,1,931,728.77a39.235,39.235,0,0,1,18.936,6.684c5.571-.4,11.124-.78,16.694-1.178,2.4,5.076,4.631,11.936,1.671,16.98-3.708,6.349-12.477,4.535-18.141,10.583-3.5,3.739-6.08,10.82-2.643,25.4l20.242,10.455,11.505-3.834s-3.6-3.6-.493-5.936a4.608,4.608,0,0,1,1.885-.8c1.6-.285,5.151,1.79,8.813,5.658l0,0c1.422,1.958-6.065,8.888-6.656,9.431C980.206,804.617,974.345,808.973,963.012,810.234Z" transform="translate(-863.487 -718.712)" fill="#003225"/>
        <ellipse id="Ellipse_52" data-name="Ellipse 52" cx="1.134" cy="3.923" rx="1.134" ry="3.923" transform="matrix(0.81, -0.586, 0.586, 0.81, 69.573, 18.896)" fill="#f6fefc"/>
      </g>
      <g id="Group_140" data-name="Group 140" transform="translate(258.342)">
        <path id="Path_126" data-name="Path 126" d="M774.688,748.227c-4.017,5.411-7.408,10.3-10.173,14.442-4.468,6.692-5.249,8.468-5.53,10.541-1.068,7.892,6.116,15.05,10.046,18.405Q771.859,769.919,774.688,748.227Z" transform="translate(-739.859 -665.624)" fill="#a86a54"/>
        <g id="Group_138" data-name="Group 138">
          <g id="Group_137" data-name="Group 137">
            <path id="Path_127" data-name="Path 127" d="M795.28,723.347c-4.6,1.3-9.4-.727-10.672-5.219s-5.569-9.771-9.463-7.81.475,10.449-4.511,9.469.432-12.9-5.75-13.972-2.755,11.947-6.386,12.024,2.98-17.23-4.326-16.881-13.364,22.445-2.281,26.506,30.3,3.67,43.16,3.646C795.3,728.484,795.229,725.961,795.28,723.347Z" transform="translate(-745.802 -687.111)" fill="#c68d76"/>
            <path id="Path_128" data-name="Path 128" d="M834.814,874.483c-2.331,5.067-14.29,3.911-18.862,3.834.07-9.075.379-18.2.5-27.266-5.727,3.139-11.385,5.162-18.016,5.442a37.872,37.872,0,0,1-16.325-3.318c-1.083,4.8-2.222,9.572-3.345,14.408,2.921,1.457,6.221,5.044,4.538,8.276-1.174,2.254-3.265,2.131-5.5,2-4.246-.248-9-1.177-13.342-1.556.65-10.556,1.395-21.162,2.049-31.634-11.312-25.911,12.186-94.356,16.2-124.882.189-1.437,1.69-8.457,5.335-9.107,1.6-.285,3.715-.916,5.53.481,3.071,2.364,2.089,5.04,3.369,8.51s10.884,1.555,13.851.582c-1.278-4.193-2.725-13.057,3.634-13.152s7.443,9.2,7.511,14.091c-.007-.595,14.18,1.21,15.524,1.545a34.915,34.915,0,0,1,13.844,7.076,14.953,14.953,0,0,1,3.64,3.8c2.65,4.513,4.323,9.816,1.767,14.736a18.075,18.075,0,0,1-13.4,9.737c-4.765.771-9.508-.206-14.157-1.215-3.316-.718-8.407-2.279-10.973.877-2.664,3.278.825,8.382,2.637,11.194a82.875,82.875,0,0,1,7.124,13.417,101.1,101.1,0,0,1,7.578,34.459,160.2,160.2,0,0,1-1.729,27.419,97.25,97.25,0,0,0-1.078,11.747c-.028,2.268-.406,4.579-.589,6.841-.1,1.229-1.086,5.3-.45,6.292C832.667,870.646,836,871.905,834.814,874.483Z" transform="translate(-737.775 -684.316)" fill="#a86a54"/>
            <path id="Path_129" data-name="Path 129" d="M795.059,751.545s5.807-4.544,10.42-2.877" transform="translate(-723.414 -665.59)" fill="none" stroke="#002e20" stroke-linecap="round" stroke-miterlimit="10" stroke-width="5"/>
            <path id="Path_130" data-name="Path 130" d="M809.8,722.3c.492.643,2.413,2.949,1.43,3.69s-2.8-1.6-3.312-2.27-2.381-2.977-1.4-3.722S809.307,721.653,809.8,722.3Z" transform="translate(-718.334 -678.52)" fill="#002e20"/>
            <path id="Path_131" data-name="Path 131" d="M801.7,724.819c4.638-.346,7.931-3.644,7.406-7.99s1.321-10.541,5.417-9.9,3.136,9.722,7.283,7.345-5.008-11.627.378-14.566,6.16,10.659,9.754,9.42-8.708-15.159-1.216-17.5,18.536,17.722,11.006,24.127-28.879,12.894-35.542,15.292-3.507-.943-5.438-2.124a1.519,1.519,0,0,1-.64-.73,2.352,2.352,0,0,1-.094-2.022A2.437,2.437,0,0,1,801.7,724.819Z" transform="translate(-721.249 -691.436)" fill="#c68d76"/>
            <g id="Group_136" data-name="Group 136" transform="translate(22.828 68.049)">
              <g id="Group_129" data-name="Group 129" transform="translate(2.505)">
                <path id="Path_132" data-name="Path 132" d="M794.577,778.057s14.439,6.491,23.512,2.172" transform="translate(-748.966 -720.115)" fill="none" stroke="#002e20" stroke-linecap="round" stroke-miterlimit="10" stroke-width="5"/>
                <path id="Path_133" data-name="Path 133" d="M795.78,738.221H783.256a20.037,20.037,0,0,0-20.037,20.039v40.075a5.01,5.01,0,0,0,5.009,5.01h42.581a5.009,5.009,0,0,0,5.009-5.01V758.26A20.038,20.038,0,0,0,795.78,738.221Z" transform="translate(-763.219 -738.221)" fill="#00a878"/>
              </g>
              <g id="Group_130" data-name="Group 130" transform="translate(2.505)">
                <path id="Path_134" data-name="Path 134" d="M783.256,738.221a20.037,20.037,0,0,0-20.037,20.039v40.075a5.01,5.01,0,0,0,5.009,5.01h30.056a5.01,5.01,0,0,0,5.01-5.01V758.26A20.037,20.037,0,0,0,783.256,738.221Z" transform="translate(-763.219 -738.221)" fill="#00805b"/>
              </g>
              <g id="Group_131" data-name="Group 131" transform="translate(0 27.553)">
                <path id="Path_135" data-name="Path 135" d="M794.058,757.164H766.506a5.01,5.01,0,0,0-5.009,5.009v22.542a5.01,5.01,0,0,0,5.009,5.01h27.551a5.01,5.01,0,0,0,5.01-5.01V762.173A5.01,5.01,0,0,0,794.058,757.164Z" transform="translate(-761.497 -757.164)" fill="#fbbe18"/>
              </g>
              <g id="Group_132" data-name="Group 132" transform="translate(0 27.553)">
                <path id="Path_136" data-name="Path 136" d="M786.544,757.164H766.506a5.01,5.01,0,0,0-5.009,5.009v22.542a5.01,5.01,0,0,0,5.009,5.01h20.037a5.01,5.01,0,0,0,5.01-5.01V762.173A5.009,5.009,0,0,0,786.544,757.164Z" transform="translate(-761.497 -757.164)" fill="#f68820"/>
              </g>
              <g id="Group_133" data-name="Group 133" transform="translate(3.404 35.067)">
                <path id="Path_137" data-name="Path 137" d="M765.089,762.33h20.745a1.251,1.251,0,0,1,1.252,1.252h0a1.252,1.252,0,0,1-1.252,1.252H765.089a1.252,1.252,0,0,1-1.252-1.252h0A1.251,1.251,0,0,1,765.089,762.33Z" transform="translate(-763.837 -762.33)" fill="#002e20"/>
              </g>
              <g id="Group_134" data-name="Group 134" transform="translate(12.523 12.523)">
                <path id="Path_138" data-name="Path 138" d="M788.266,749.335H771.359a1.252,1.252,0,1,1,0-2.5h16.907a1.252,1.252,0,1,1,0,2.5Z" transform="translate(-770.107 -746.831)" fill="#f6fefc"/>
              </g>
              <g id="Group_135" data-name="Group 135" transform="translate(27.551)">
                <path id="Path_139" data-name="Path 139" d="M800.476,758.26v3.757a1.253,1.253,0,0,0,2.506,0V758.26a20.038,20.038,0,0,0-20.039-20.039h-2.5A20.037,20.037,0,0,1,800.476,758.26Z" transform="translate(-780.439 -738.221)" fill="#002e20"/>
              </g>
            </g>
            <path id="Path_140" data-name="Path 140" d="M805.062,750.619c5.982,4.112,16.4,12.7,20.811,26.645a33.844,33.844,0,0,1-.02,18.759,8.728,8.728,0,0,1-17.089-3.465,27.246,27.246,0,0,0-.495-16.979,26.955,26.955,0,0,0-8.083-11.392" transform="translate(-721.084 -664.537)" fill="#a86a54"/>
          </g>
        </g>
        <path id="Path_141" data-name="Path 141" d="M785.078,786.015s-7.648,3.111-12.443-1.945-5.313,4.149,1.037,8.685c0,0-5.572-.713-4.341,2.073s6.157,8.426,12.119,7.972" transform="translate(-735.271 -650.002)" fill="#a86a54" stroke="#c68d76" stroke-linejoin="round" stroke-width="1"/>
        <g id="Group_139" data-name="Group 139" transform="translate(23.293 64.356)">
          <rect id="Rectangle_285" data-name="Rectangle 285" width="53.027" height="10.752" rx="3.696" fill="#002e20"/>
          <circle id="Ellipse_53" data-name="Ellipse 53" cx="5.376" cy="5.376" r="5.376" transform="translate(42.275)" fill="#00805b"/>
        </g>
      </g>
      <path id="Path_142" data-name="Path 142" d="M920.627,762.1a10.378,10.378,0,0,1,5.521-2.429c1.242.06,3.046,1.446,5.5,2.217a2.15,2.15,0,0,1-1.06,4.16l-6.979.308q-.883,1.132-1.766,2.266a5.441,5.441,0,0,1-1.854-3.572A5.276,5.276,0,0,1,920.627,762.1Z" transform="translate(-408.296 -660.423)" fill="#003225"/>
      <path id="Path_143" data-name="Path 143" d="M778.589,809.9l-7.376-7.594,6.188,12.768Z" transform="translate(-475.91 -641.043)" fill="#002e20"/>
      <path id="Path_144" data-name="Path 144" d="M675.335,826.229a208.7,208.7,0,0,0-98.3,9.308q-4.422,9.462-8.846,18.926L684.03,840.231l13.22-4.695,56.021-18.43Z" transform="translate(-568.188 -634.317)" fill="#003225" opacity="0.5"/>
    </g>
    <path id="Path_145" data-name="Path 145" d="M2224.828,946.417c-10.038-25.6-23.529-44.333-35.659-44.261a13.963,13.963,0,0,0-5.18,1.12c-10.507,4.393-21.276,21.251-29.5,43.141a232,232,0,0,0-10.74,39.214v0l0,0c-8.4-43.185-29.168-83.577-46.967-83.475a13.947,13.947,0,0,0-5.187,1.12c-16.25,6.793-33.129,43.432-40.23,82.355-8.418-43.185-29.185-83.577-46.984-83.475a13.93,13.93,0,0,0-5.172,1.12c-16.266,6.793-33.144,43.432-40.247,82.355-8.417-43.185-29.183-83.577-46.982-83.475a13.928,13.928,0,0,0-5.172,1.12c-14.393,6.016-29.274,35.45-37.423,69.142a214.157,214.157,0,0,0-2.81-25.035c-8.431-43.185-29.183-83.577-46.982-83.475a14.062,14.062,0,0,0-5.187,1.12c-16.251,6.792-33.129,43.432-40.232,82.355a231.77,231.77,0,0,0-2.666,26.262c-9.6-38.385-28.178-71.582-44.316-71.489a13.934,13.934,0,0,0-5.173,1.12c-16.265,6.793-33.144,43.432-40.247,82.355-8.4-43.185-29.169-83.577-46.968-83.475a14,14,0,0,0-5.187,1.12c-16.25,6.793-33.129,43.432-40.232,82.355-8.416-43.185-29.183-83.577-46.982-83.475a13.933,13.933,0,0,0-5.173,1.12c-16.266,6.793-33.144,43.432-40.247,82.355-8.4-43.185-29.169-83.577-46.968-83.475a13.944,13.944,0,0,0-5.187,1.12c-16.251,6.793-33.13,43.432-40.231,82.355-8.418-43.17-29.185-83.577-46.984-83.475a13.932,13.932,0,0,0-5.173,1.12c-16.265,6.793-33.144,43.432-40.245,82.355-8.418-43.185-29.185-83.577-46.983-83.475a13.93,13.93,0,0,0-5.173,1.12c-16.266,6.807-33.144,43.461-40.231,82.384-8.418-43.185-29.183-83.606-46.983-83.5a14.005,14.005,0,0,0-5.187,1.12c-16.251,6.793-33.13,43.432-40.231,82.355-8.418-43.185-29.185-83.577-46.984-83.475a13.933,13.933,0,0,0-5.173,1.12c-14.766,6.166-30.035,36.929-38.038,71.667-.591-6.056-1.332-11.533-2.207-16.017-8.4-43.185-29.169-83.576-46.969-83.474a13.935,13.935,0,0,0-5.187,1.12c-16.251,6.792-33.13,43.432-40.231,82.355-.862,4.708-1.576,10.519-2.132,16.939-9.429-39.314-28.4-73.8-44.852-73.709a13.931,13.931,0,0,0-5.173,1.12c-16.266,6.793-33.144,43.432-40.245,82.355-8.4-43.185-29.168-83.577-46.969-83.475a13.942,13.942,0,0,0-5.187,1.12c-16.251,6.793-33.13,43.432-40.231,82.355-8.433-43.185-29.183-83.577-46.984-83.475a14.064,14.064,0,0,0-5.187,1.12c-15.941,6.663-32.478,42.046-39.806,80.129-.142-.774-.275-1.556-.424-2.32-8.418-43.184-29.183-83.577-46.984-83.475a13.926,13.926,0,0,0-5.172,1.12c-16.266,6.792-33.144,43.432-40.245,82.355-.149.815-.282,1.65-.423,2.476-8.654-42.4-29.031-81.505-46.546-81.4a14.01,14.01,0,0,0-5.187,1.12c-16.249,6.793-33.13,43.432-40.231,82.355-8.418-43.185-29.183-83.577-46.982-83.475a13.938,13.938,0,0,0-5.174,1.12c-16.264,6.793-33.144,43.432-40.245,82.355a228.544,228.544,0,0,0-11.3-39.214c-10.039-25.6-23.542-44.333-35.671-44.261a13.95,13.95,0,0,0-5.189,1.12c-10.507,4.393-21.277,21.251-29.49,43.141v108.565h81.237c.22-.684.425-1.367.615-2.066.189.7.394,1.382.6,2.066h91.189c.219-.684.424-1.382.614-2.08.189.7.394,1.4.6,2.08h91.174c.234-.684.439-1.382.629-2.095.189.713.393,1.411.6,2.095h91.174c.219-.684.424-1.367.615-2.066.189.7.393,1.382.6,2.066h91.189c.219-.684.424-1.382.614-2.08.189.7.394,1.4.6,2.08H849.8c.22-.684.424-1.367.615-2.066.189.7.394,1.382.6,2.066h91.189c.219-.684.424-1.382.613-2.08.19.7.4,1.4.6,2.08h91.174c.219-.684.424-1.367.613-2.066.19.7.4,1.382.6,2.066h91.189c.22-.684.424-1.367.613-2.066.19.7.395,1.382.6,2.066h91.174c.234-.7.439-1.4.628-2.109.19.712.395,1.411.6,2.109h91.174c.22-.684.423-1.367.613-2.066.19.7.4,1.382.6,2.066h91.188c.22-.684.424-1.382.613-2.08.19.7.395,1.4.6,2.08h91.174c.22-.684.423-1.367.613-2.066.19.7.4,1.382.6,2.066h91.188c.219-.684.423-1.382.613-2.08.19.7.395,1.4.6,2.08h91.174c.234-.684.437-1.382.628-2.095.19.713.395,1.411.6,2.095h91.174c.219-.684.423-1.367.613-2.066.19.7.4,1.382.6,2.066h91.189c.219-.684.422-1.382.613-2.08.19.7.395,1.4.6,2.08h91.174c.218-.684.423-1.367.613-2.066.19.7.395,1.382.6,2.066h91.189c.218-.684.423-1.382.613-2.08.19.7.395,1.4.6,2.08h91.173c.219-.684.423-1.367.613-2.066l0,0v0c.19.7.395,1.382.6,2.066h81.3V949.064C2225.515,948.177,2225.178,947.29,2224.828,946.417Z" transform="translate(-304.911 -252.826)" fill="#003225"/>
    <path id="Path_147" data-name="Path 147" d="M441.819,817.419s4.015-13.52,12.147-14.022S466.1,813.664,466.1,813.664s10.1-20.447,25.454-20.78S518.6,811.911,518.6,811.911s6.676-8.518,15.022-6.762,11.35,12.27,11.35,12.27Z" transform="translate(-243.447 -285.265)" fill="#003225"/>
    <path id="Path_148" data-name="Path 148" d="M1236.671,812.312c-7.693.733-24.372,2.694-33.022,14.781-1.451,2.029-5.248,7.34-4.717,12.109,2.787,25.025,123.727,25.829,183.509,22.172,17.564-1.075,53.788-4,69.421-27.529,2.506-3.77,3.911-5.951,3.61-8.89C1452.07,791.774,1246.739,811.352,1236.671,812.312Z" transform="translate(109.662 -279.413)" fill="#03dac5"/>
    <path id="Path_149" data-name="Path 149" d="M1326.768,851.394a77.9,77.9,0,0,0-9.6-17.264,76.307,76.307,0,0,0-4.854-5.94q2.883,12.366,5.761,24.733Z" transform="translate(161.065 -269.186)" fill="#00a878"/>
    <path id="Path_150" data-name="Path 150" d="M1319.673,850.39a52.78,52.78,0,0,0-6.5-11.69c-1.091-1.481-2.2-2.818-3.287-4.023q1.951,8.376,3.9,16.749Z" transform="translate(159.918 -266.235)" fill="#00a878"/>
    <path id="Path_151" data-name="Path 151" d="M646.1,865.769l-1.814,6.307-4.8-9.547q-1.687,5.509-3.37,11.017H649.25Z" transform="translate(-152.228 -253.555)" fill="#003225"/>
    <path id="Path_152" data-name="Path 152" d="M341.266,833.174l-1.815,6.308-4.8-9.548q-1.684,5.507-3.37,11.016h13.134Q342.842,837.064,341.266,833.174Z" transform="translate(-293.686 -268.396)" fill="#003225"/>
    <path id="Path_153" data-name="Path 153" d="M1296.266,864.523l-1.813,6.308-4.8-9.548q-1.687,5.507-3.37,11.016h13.133Q1297.844,868.412,1296.266,864.523Z" transform="translate(149 -254.122)" fill="#003225"/>
    <path id="Path_154" data-name="Path 154" d="M731.982,793.682l-5.734-11.1q-1.684,5.509-3.37,11.018Z" transform="translate(-112.038 -289.957)" fill="#003225"/>
    <path id="Path_155" data-name="Path 155" d="M1003.355,875.566l-5.735-11.1q-1.684,5.509-3.37,11.017Z" transform="translate(13.685 -252.673)" fill="#003225"/>
    <path id="Path_156" data-name="Path 156" d="M1332.3,796.689l-5.734-11.1q-1.683,5.509-3.37,11.018Z" transform="translate(166.084 -288.588)" fill="#003225"/>
    <g id="Group_144" data-name="Group 144" transform="translate(393.611 414.411)">
      <path id="Path_157" data-name="Path 157" d="M678.3,728.818H615.312l60.519,119.214,56.3-18Q705.217,779.426,678.3,728.818Z" transform="translate(-555.616 -728.818)" fill="#ffe2cc"/>
      <path id="Path_158" data-name="Path 158" d="M656.92,816.4l56.3-18q-.14,13.6-.279,27.2-28.01,9.213-56.021,18.43Z" transform="translate(-536.704 -697.189)" fill="#ffe2cc"/>
      <path id="Path_159" data-name="Path 159" d="M654.757,844.7,624.7,796.938,594.649,844.7Z" transform="translate(-565.007 -697.856)" fill="#003225"/>
      <g id="Group_142" data-name="Group 142" transform="translate(0 0)">
        <path id="Path_160" data-name="Path 160" d="M633.966,728.818l-59.7,119.214v27.632h29.642L633.966,827.9V728.818Z" transform="translate(-574.27 -728.818)" fill="#c68d76"/>
        <path id="Path_161" data-name="Path 161" d="M615.312,728.818V827.9l30.054,47.765h30.466V848.032Z" transform="translate(-555.616 -728.818)" fill="#c68d76"/>
      </g>
      <g id="Group_143" data-name="Group 143" transform="translate(29.642 99.082)">
        <path id="Path_162" data-name="Path 162" d="M615.312,796.938,645.366,844.7V803.649Z" transform="translate(-585.258 -796.938)" fill="#a86a54"/>
        <path id="Path_163" data-name="Path 163" d="M594.649,844.7,624.7,796.938l-30.054,5.527Z" transform="translate(-594.649 -796.938)" fill="#a86a54"/>
      </g>
    </g>
    <g id="Group_150" data-name="Group 150" transform="translate(288.689 511.254)">
      <ellipse id="Ellipse_54" data-name="Ellipse 54" cx="43.606" cy="7.724" rx="43.606" ry="7.724" transform="translate(7.921 84.662)" fill="#003225" opacity="0.5"/>
      <g id="Group_145" data-name="Group 145">
        <path id="Path_164" data-name="Path 164" d="M528.682,865.223,519.3,851.146a20.381,20.381,0,0,1,3.911-26.965l3.144-2.621,6.986,12.227v-7.914a42.327,42.327,0,0,1,19.211-30.51L568.5,810.245a32.272,32.272,0,0,1,10.253,23.594h0a32.767,32.767,0,0,1-6.026,18.935l-8.816,12.449Z" transform="translate(-496.657 -795.363)" fill="#faad14"/>
        <path id="Path_165" data-name="Path 165" d="M560.41,834.736a16.253,16.253,0,0,1-3.33,9.857l-8.657,11.352H533.632l-6.758-10.133a8.336,8.336,0,0,1,2.319-11.553l1.525-1.018,5.241,5.241v-2.347a28.179,28.179,0,0,1,12.225-20.358l7.463,7.463S560.41,828.091,560.41,834.736Z" transform="translate(-492.291 -786.085)" fill="#cf4a11"/>
        <path id="Path_166" data-name="Path 166" d="M524.28,843.393h40.169v20.958H524.28Z" transform="translate(-492.837 -773.532)" fill="#a86a54"/>
        <path id="Path_167" data-name="Path 167" d="M536.833,851.8h0a1.747,1.747,0,0,1,1.747,1.747h0a1.747,1.747,0,0,1-1.747,1.747h0a1.747,1.747,0,0,1-1.747-1.747h0A1.748,1.748,0,0,1,536.833,851.8Z" transform="translate(-487.925 -769.712)" fill="#995945"/>
        <path id="Path_168" data-name="Path 168" d="M541.636,851.8h6.986a1.748,1.748,0,0,1,1.747,1.747h0a1.747,1.747,0,0,1-1.747,1.747h-6.986a1.747,1.747,0,0,1-1.747-1.747h0A1.748,1.748,0,0,1,541.636,851.8Z" transform="translate(-485.742 -769.712)" fill="#995945"/>
        <path id="Path_169" data-name="Path 169" d="M547.094,846.036a8.626,8.626,0,0,0,2.532,6.112l19.211,19.213.174.175a8.645,8.645,0,0,0,12.238-12.214l-.013-.012-.174-.176-19.211-19.211a8.636,8.636,0,0,0-12.212-.013l-.013.013c-.121.121-.238.247-.352.374a8.6,8.6,0,0,0-2.18,5.74Z" transform="translate(-482.467 -776.263)" fill="#a86a54"/>
        <path id="Path_170" data-name="Path 170" d="M560.3,859.242a8.637,8.637,0,0,0,2.532,6.113l.175.174a8.645,8.645,0,0,0,12.238-12.214l-.013-.012-.174-.176a8.645,8.645,0,0,0-14.757,6.114Z" transform="translate(-476.464 -770.258)" fill="#ffe2cc"/>
        <path id="Path_171" data-name="Path 171" d="M539.345,846.036a8.639,8.639,0,0,1-2.532,6.112L517.6,871.36l-.176.175a8.645,8.645,0,0,1-12.237-12.214l.012-.012.174-.176,19.213-19.211a8.636,8.636,0,0,1,12.212-.013l.013.013c.119.121.237.247.351.374A8.609,8.609,0,0,1,539.345,846.036Z" transform="translate(-502.662 -776.263)" fill="#a86a54"/>
        <path id="Path_172" data-name="Path 172" d="M520.133,859.242a8.644,8.644,0,0,1-2.532,6.113l-.176.174a8.645,8.645,0,1,1-12.237-12.214l.012-.012.174-.176a8.646,8.646,0,0,1,14.759,6.114Z" transform="translate(-502.662 -770.258)" fill="#ffe2cc"/>
        <path id="Path_173" data-name="Path 173" d="M548.951,846.036a8.639,8.639,0,0,1-2.532,6.112L527.206,871.36l-.174.175a8.645,8.645,0,0,1-12.237-12.214l.012-.012.174-.176,19.211-19.211a8.637,8.637,0,0,1,12.214-.013l.013.013c.119.121.237.247.351.374A8.609,8.609,0,0,1,548.951,846.036Z" transform="translate(-498.296 -776.263)" fill="#c68d76"/>
        <path id="Path_174" data-name="Path 174" d="M529.74,859.242a8.639,8.639,0,0,1-2.534,6.113l-.174.174a8.645,8.645,0,1,1-12.237-12.214l.012-.012.174-.176a8.647,8.647,0,0,1,14.759,6.114Z" transform="translate(-498.296 -770.258)" fill="#ffe2cc"/>
        <path id="Path_175" data-name="Path 175" d="M574.164,865.42a8.645,8.645,0,0,1-14.758,6.113l-.175-.175-19.211-19.213a8.643,8.643,0,0,1,0-12.224h0a8.628,8.628,0,0,1,5.222-2.489c.292-.028.589-.044.89-.044a8.649,8.649,0,0,1,6.113,2.532l19.211,19.211.174.176A8.641,8.641,0,0,1,574.164,865.42Z" transform="translate(-486.834 -776.261)" fill="#c68d76"/>
        <path id="Path_176" data-name="Path 176" d="M568.162,859.419a8.644,8.644,0,0,1-14.757,6.114l-.175-.175a8.645,8.645,0,1,1,12.214-12.238l.012.012.174.176A8.64,8.64,0,0,1,568.162,859.419Z" transform="translate(-480.832 -770.26)" fill="#ffe2cc"/>
      </g>
      <g id="Group_146" data-name="Group 146" transform="translate(17.652 84.019)">
        <path id="Path_177" data-name="Path 177" d="M519.854,863.239a5.056,5.056,0,0,1,0-10.112,1.271,1.271,0,0,1,0,2.543,2.514,2.514,0,1,0,2.513,2.513,1.271,1.271,0,0,1,2.542,0,5.061,5.061,0,0,1-5.056,5.056Z" transform="translate(-514.798 -853.127)" fill="#c68d76"/>
      </g>
      <g id="Group_147" data-name="Group 147" transform="translate(3.682 84.019)">
        <path id="Path_178" data-name="Path 178" d="M510.25,863.239a5.056,5.056,0,0,1,0-10.112,1.271,1.271,0,0,1,0,2.543,2.514,2.514,0,1,0,2.513,2.513,1.271,1.271,0,0,1,2.542,0,5.061,5.061,0,0,1-5.056,5.056Z" transform="translate(-505.194 -853.127)" fill="#a86a54"/>
      </g>
      <g id="Group_148" data-name="Group 148" transform="translate(87.64 84.019)">
        <path id="Path_179" data-name="Path 179" d="M567.973,863.239a5.056,5.056,0,1,1,0-10.112,1.271,1.271,0,1,1,0,2.543,2.514,2.514,0,1,0,2.513,2.513,1.271,1.271,0,0,1,2.542,0,5.061,5.061,0,0,1-5.056,5.056Z" transform="translate(-562.916 -853.127)" fill="#a86a54"/>
      </g>
      <g id="Group_149" data-name="Group 149" transform="translate(73.672 84.019)">
        <path id="Path_180" data-name="Path 180" d="M558.369,863.239a5.056,5.056,0,0,1,0-10.112,1.271,1.271,0,1,1,0,2.543,2.514,2.514,0,1,0,2.514,2.513,1.271,1.271,0,1,1,2.542,0,5.061,5.061,0,0,1-5.056,5.056Z" transform="translate(-553.313 -853.127)" fill="#c68d76"/>
      </g>
    </g>
    <g id="Group_155" data-name="Group 155" transform="translate(513.744 596.063)">
      <path id="Path_183" data-name="Path 183" d="M770.891,869.155H673.5c-9.462,0-17.133,4.15-17.133,9.271s7.671,9.271,17.133,9.271h97.387c9.462,0,17.133-4.151,17.133-9.271S780.352,869.155,770.891,869.155Z" transform="translate(-656.371 -846.602)" fill="#003225" opacity="0.5"/>
      <path id="Path_184" data-name="Path 184" d="M677.67,887.917a17.134,17.134,0,0,1,0-34.267h97.387v34.267Z" transform="translate(-654.477 -853.649)" fill="#c68d76"/>
      <g id="Group_151" data-name="Group 151" transform="translate(87.781 17.285)">
        <path id="Path_185" data-name="Path 185" d="M719.506,876.068a2.785,2.785,0,0,1,0-5.569c8.685,0,13.546-4.2,13.593-4.241a2.785,2.785,0,0,1,3.747,4.121c-.256.233-6.384,5.69-17.339,5.69Z" transform="translate(-716.722 -865.533)" fill="#a86a54"/>
      </g>
      <circle id="Ellipse_55" data-name="Ellipse 55" cx="17.134" cy="17.134" r="17.134" transform="translate(103.445)" fill="#ebbba5"/>
      <g id="Group_152" data-name="Group 152" transform="translate(109.505 6.06)">
        <path id="Path_186" data-name="Path 186" d="M742.731,879.964a11.074,11.074,0,1,1,0-22.148,2.785,2.785,0,0,1,0,5.569,5.505,5.505,0,1,0,5.506,5.505,2.784,2.784,0,1,1,5.568,0A11.086,11.086,0,0,1,742.731,879.964Z" transform="translate(-731.657 -857.816)" fill="#c68d76"/>
      </g>
      <g id="Group_153" data-name="Group 153" transform="translate(6.342 7.384)">
        <path id="Path_187" data-name="Path 187" d="M724.865,869.153c-.237.1-3.764,1.567-10.955,1.567a76.866,76.866,0,0,1-19.455-2.81c-20.6-5.412-30.839-3.382-33.723-2.532a16.914,16.914,0,0,1,2.451-6.185c5.786-.835,16.253-.983,32.69,3.334,18.321,4.812,26.711,1.548,26.788,1.514a2.784,2.784,0,1,1,2.2,5.112Z" transform="translate(-660.731 -858.726)" fill="#a86a54"/>
      </g>
      <g id="Group_154" data-name="Group 154" transform="translate(90.129 8.965)">
        <path id="Path_188" data-name="Path 188" d="M721.136,865.382h-.016a2.8,2.8,0,0,1-2.784-2.8,2.771,2.771,0,0,1,2.768-2.768h.048a2.785,2.785,0,0,1-.016,5.569Z" transform="translate(-718.336 -859.813)" fill="#a86a54"/>
      </g>
    </g>
    <ellipse id="Ellipse_46" data-name="Ellipse 46" cx="8.33" cy="2.821" rx="8.33" ry="2.821" transform="translate(1870.073 494.316)" fill="#faad14"/>
    <path id="Path_146" data-name="Path 146" d="M1572.271,846.464c-16.316,1.6-30.706,21.162-32.946,23.961l0,0s-1.214-12.967-10.912-14.972-23.039,18.205-23.039,18.205q52.141.052,104.279.106C1601.283,856.359,1585.967,845.123,1572.271,846.464Z" transform="translate(251.417 -260.914)" fill="#003225"/>
  </g>
</svg>
