<svg viewBox="0 0 512 512" fill="none" xmlns="http://www.w3.org/2000/svg">
<path d="M3.10134 139.481C4.65934 143.281 8.55034 145.798 12.6573 145.655C16.7973 145.511 20.4433 142.769 21.7983 138.872C23.1483 134.992 21.8343 130.532 18.6753 127.933C15.3623 125.207 10.5243 124.928 6.91834 127.254C2.91334 129.835 1.26734 135.079 3.10134 139.481V139.481Z" fill="#00A878"/>
<path d="M415.065 216.122C416.045 213.596 416.948 211.076 417.768 208.573C423.288 191.733 425.543 174.613 424.664 156.235C423.206 125.792 409.117 96.5238 384.993 73.8218C361.832 52.0259 332.403 39.5249 304.252 39.5249C262.312 39.5249 229.535 62.9379 213.729 76.8948C212.553 77.9338 210.839 77.9558 209.655 76.9438C193.273 62.9689 159.772 39.5249 119.468 39.5249C86.1642 39.5249 50.7112 57.4939 26.9443 86.4188C23.4383 90.6858 24.0543 96.9878 28.3213 100.494C32.5893 104.001 38.8903 103.384 42.3963 99.1168C62.4622 74.6968 91.9952 59.5259 119.468 59.5259C153.358 59.5259 182.387 79.9728 196.674 92.1608C205.368 99.5768 218.391 99.4598 226.967 91.8878C240.654 79.8018 268.896 59.5259 304.251 59.5259C349.452 59.5259 402.008 101.294 404.686 157.192C405.446 173.091 403.507 187.861 398.76 202.345C397.636 205.775 396.37 209.157 394.929 212.575C390.912 212.194 386.843 211.999 382.729 211.999C311.449 211.999 253.458 270.423 253.458 342.237C253.458 345.633 253.588 348.999 253.843 352.331C243.951 360.398 235.912 367.003 229.194 372.689C219.049 381.277 204.325 381.275 194.182 372.683C185.108 364.995 173.31 355.382 160.82 345.204C115.737 308.467 53.9932 258.154 39.1303 232.903C29.3583 216.301 23.5193 201.264 20.7553 185.58C20.4363 183.767 20.1533 181.924 19.9173 180.101C19.2063 174.624 14.1903 170.76 8.71332 171.471C3.23633 172.182 -0.627658 177.199 0.0833405 182.675C0.35834 184.797 0.687339 186.942 1.05934 189.051C4.25133 207.162 10.8713 224.32 21.8943 243.047C38.5773 271.391 99.3521 320.914 148.186 360.707C160.601 370.823 172.326 380.378 181.254 387.942C190.072 395.413 200.88 399.147 211.692 399.147C222.495 399.147 233.301 395.415 242.116 387.954C246.607 384.153 251.723 379.914 257.62 375.076C272.103 431.045 322.704 472.476 382.729 472.476C454.008 472.476 511.998 414.051 511.998 342.237C512 281.667 470.748 230.622 415.065 216.122V216.122ZM382.731 452.475C322.478 452.475 273.459 403.022 273.459 342.236C273.459 281.45 322.478 231.998 382.731 231.998C442.982 231.998 492.001 281.45 492.001 342.236C492 403.022 442.982 452.475 382.731 452.475Z" fill="#00A878"/>
<path d="M430.63 307.877H416.886V293.925C416.886 281.657 406.95 271.677 394.737 271.677H370.726C358.513 271.677 348.577 281.657 348.577 293.925V307.877H334.833C322.62 307.877 312.684 317.857 312.684 330.125V354.35C312.684 366.618 322.62 376.598 334.833 376.598H348.577V390.551C348.577 402.818 358.513 412.799 370.726 412.799H394.737C406.95 412.799 416.886 402.819 416.886 390.551V376.598H430.63C442.843 376.598 452.779 366.618 452.779 354.35V330.125C452.78 317.857 442.843 307.877 430.63 307.877ZM432.78 354.349C432.78 355.588 431.816 356.597 430.631 356.597H406.887C401.365 356.597 396.887 361.074 396.887 366.597V390.55C396.887 391.789 395.923 392.798 394.738 392.798H370.727C369.541 392.798 368.578 391.79 368.578 390.55V366.597C368.578 361.074 364.1 356.597 358.578 356.597H334.834C333.648 356.597 332.685 355.589 332.685 354.349V330.124C332.685 328.884 333.649 327.876 334.834 327.876H358.578C364.1 327.876 368.578 323.399 368.578 317.876V293.924C368.578 292.684 369.542 291.676 370.727 291.676H394.738C395.923 291.676 396.887 292.684 396.887 293.924V317.876C396.887 323.399 401.365 327.876 406.887 327.876H430.631C431.817 327.876 432.78 328.884 432.78 330.124V354.349Z" fill="#00A878"/>
</svg>
