<svg xmlns="http://www.w3.org/2000/svg" width="100" height="175.063" viewBox="0 0 100 175.063">
  <g id="Black" transform="translate(0.11)">
    <g id="Trust_Badge_Black_" data-name="Trust Badge (Black)" transform="translate(-0.11)">
      <path id="Background_Bottom_" data-name="Background (Bottom)" d="M21.78,264.959c0-.666,1.411-.959,2.356-.959h84.456c.946,0,1.139.292,1.139.959v90.8a1.9,1.9,0,0,1-1.235,1.774L68.1,372.444a4.946,4.946,0,0,1-2.979,0L23.59,357.53c-.839-.3-1.81-1.1-1.81-1.766Z" transform="translate(-16.17 -197.611)"/>
      <g id="Official_Plate" data-name="Official Plate" transform="translate(0.062 53.107)">
        <path id="Shadow" d="M115.951,360.441V350.02H34.24Z" transform="translate(-25.498 -313.944)" fill="#101111"/>
        <path id="Plate_Background" data-name="Plate Background" d="M107.6,256.072s-40.627,13.535-91.888,0V229.73c47.3,12.407,91.888,0,91.888,0Z" transform="translate(-11.717 -224.484)" fill="#fff"/>
        <path id="Plate_Border" data-name="Plate Border" d="M96.04,214.506v26.342s-18.071,6.02-45.309,6.02a182.824,182.824,0,0,1-46.637-6.02V214.506a177.758,177.758,0,0,0,44.869,5.513c27.243,0,47.072-5.513,47.072-5.513M100,209.26l-5.018,1.4a192.1,192.1,0,0,1-46.024,5.369,173.363,173.363,0,0,1-43.869-5.382l-4.959-1.3v34.6l2.962.782a186.8,186.8,0,0,0,47.637,6.151c27.561,0,45.8-5.964,46.563-6.218l2.72-.9V209.26Z" transform="translate(-0.13 -209.26)"/>
        <g id="Official" transform="translate(8.747 14.224)">
          <path id="Path_379" data-name="Path 379" d="M44.814,266.079a2.013,2.013,0,0,1,.769.31,2.1,2.1,0,0,1,.877,1.251,1.917,1.917,0,0,1,.026.81q-.7,4-1.412,8a1.812,1.812,0,0,1-.315.748,2.144,2.144,0,0,1-.569.569,2.05,2.05,0,0,1-.769.3,2.334,2.334,0,0,1-.874,0q-3.286-.625-6.559-1.366a2.432,2.432,0,0,1-.8-.349,2.214,2.214,0,0,1-.589-.587,2,2,0,0,1-.308-.743,1.933,1.933,0,0,1,.021-.812l1.9-7.9a2.024,2.024,0,0,1,.341-.725,1.958,1.958,0,0,1,.582-.525,2.279,2.279,0,0,1,.746-.272,2.013,2.013,0,0,1,.82.018Q41.746,265.5,44.814,266.079Zm-1.61,2.706q-2.068-.4-4.129-.859l-1.353,6.12q2.138.474,4.278.892Q42.6,271.866,43.2,268.785Z" transform="translate(-34.259 -264.758)"/>
          <path id="Path_380" data-name="Path 380" d="M97.757,274.608a.333.333,0,0,1,.072.244l-.238,2.289a.318.318,0,0,1-.123.223.326.326,0,0,1-.256.072q-2.976-.318-5.946-.736c-.059,0-.092,0-.1.056q-.133.938-.256,1.881a.077.077,0,0,0,.077.1q2.276.323,4.56.584a.3.3,0,0,1,.223.12.333.333,0,0,1,.064.256c-.082.72-.161,1.443-.256,2.163a.331.331,0,0,1-.118.223.313.313,0,0,1-.256.069q-2.307-.256-4.634-.592a.077.077,0,0,0-.1.072q-.277,1.943-.551,3.883c-.031.22-.164.313-.4.279-.859-.126-1.717-.256-2.563-.39-.236-.038-.336-.164-.3-.384q.915-5.695,1.825-11.39a.3.3,0,0,1,.384-.277q4.321.684,8.663,1.146A.336.336,0,0,1,97.757,274.608Z" transform="translate(-73.351 -271.14)"/>
          <path id="Path_381" data-name="Path 381" d="M143.216,279.432a.315.315,0,0,1,.087.238c-.028.769-.059,1.538-.087,2.307a.328.328,0,0,1-.108.231.343.343,0,0,1-.256.087q-2.988-.123-5.972-.346c-.062,0-.092.015-.095.062-.049.633-.095,1.264-.144,1.894a.079.079,0,0,0,.082.095q2.291.174,4.583.284a.31.31,0,0,1,.231.108.328.328,0,0,1,.079.238q-.054,1.087-.1,2.176a.333.333,0,0,1-.1.231.313.313,0,0,1-.243.085q-2.33-.115-4.657-.29a.08.08,0,0,0-.1.08q-.146,1.958-.295,3.911c-.018.22-.146.32-.382.3-.864-.067-1.725-.141-2.589-.218-.238-.023-.346-.144-.325-.364q.543-5.744,1.079-11.487a.295.295,0,0,1,.364-.3q4.357.4,8.714.579A.315.315,0,0,1,143.216,279.432Z" transform="translate(-107.806 -275.162)"/>
          <path id="Path_382" data-name="Path 382" d="M182.6,293.229c0,.22-.123.331-.359.328-.866-.013-1.73-.028-2.6-.051-.238,0-.354-.12-.346-.341l.328-11.533a.3.3,0,0,1,.343-.323q1.21.036,2.422.049a.295.295,0,0,1,.328.336Q182.664,287.46,182.6,293.229Z" transform="translate(-142.456 -277.064)"/>
          <path id="Path_383" data-name="Path 383" d="M206.557,283.734a.284.284,0,0,0-.092.228q.064,2.819.133,5.639a.284.284,0,0,0,.105.226.371.371,0,0,0,.256.079q2.968-.072,5.933-.256a.343.343,0,0,1,.256.079.323.323,0,0,1,.118.231l.138,2.294a.318.318,0,0,1-.09.243.379.379,0,0,1-.256.11q-1.961.113-3.926.187-1.615.056-3.232.09h-.338a2.291,2.291,0,0,1-.859-.144,2.153,2.153,0,0,1-.707-.428,1.948,1.948,0,0,1-.472-.651,1.9,1.9,0,0,1-.174-.792V289.3q0-2.03-.021-4.062v-2.473a2.035,2.035,0,0,1,.156-.795,1.927,1.927,0,0,1,.436-.648,2.306,2.306,0,0,1,.656-.443,2,2,0,0,1,.795-.177h.318q3.332-.067,6.682-.256a.333.333,0,0,1,.354.31l.138,2.307a.318.318,0,0,1-.085.241.336.336,0,0,1-.236.11q-2.86.164-5.726.238A.346.346,0,0,0,206.557,283.734Z" transform="translate(-160.417 -276.426)"/>
          <path id="Path_384" data-name="Path 384" d="M254.954,290.46c.021.22-.087.341-.326.361-.861.082-1.725.156-2.586.223-.238.018-.367-.082-.382-.3q-.443-5.751-.882-11.5a.292.292,0,0,1,.308-.356q1.207-.095,2.414-.208a.295.295,0,0,1,.364.3Q254.418,284.717,254.954,290.46Z" transform="translate(-195.779 -275.103)"/>
          <path id="Path_385" data-name="Path 385" d="M282.177,273.061a1.994,1.994,0,0,1,.818.033,2.207,2.207,0,0,1,.718.323,2.1,2.1,0,0,1,.543.561,1.939,1.939,0,0,1,.3.754q.833,4.844,1.671,9.685a.3.3,0,0,1-.062.256.356.356,0,0,1-.236.138q-1.282.218-2.586.423a.353.353,0,0,1-.256-.056.31.31,0,0,1-.138-.215q-.238-1.538-.474-3.076a.331.331,0,0,0-.128-.22.313.313,0,0,0-.256-.056q-1.794.272-3.619.513a.346.346,0,0,0-.233.126.313.313,0,0,0-.072.256l.395,3.078c.028.218-.074.343-.313.374-.859.108-1.72.213-2.578.31-.238.026-.369-.072-.392-.29q-.546-4.885-1.087-9.77a2.019,2.019,0,0,1,.072-.8,1.913,1.913,0,0,1,.367-.692,2.342,2.342,0,0,1,.6-.513,2,2,0,0,1,.769-.256Q279.1,273.555,282.177,273.061Zm-.159,5.895q-.236-1.515-.466-3.032-2.076.32-4.16.589.2,1.522.395,3.042,2.12-.272,4.232-.595Z" transform="translate(-213.416 -270.912)"/>
          <path id="Path_386" data-name="Path 386" d="M334.059,275.646a.325.325,0,0,1,.4.256c.179.746.359,1.489.536,2.235a.317.317,0,0,1-.036.256.325.325,0,0,1-.218.151q-3.975.946-7.984,1.715c-.236.044-.374-.041-.415-.256q-1.074-5.667-2.148-11.336a.295.295,0,0,1,.269-.387c.795-.154,1.592-.31,2.386-.474a.292.292,0,0,1,.395.256L329,276.453a.279.279,0,0,0,.146.2.371.371,0,0,0,.256.033Q331.74,276.2,334.059,275.646Z" transform="translate(-250.603 -267.011)"/>
        </g>
      </g>
      <g id="Background_Top_" data-name="Background (Top)">
        <path id="Path_387" data-name="Path 387" d="M99.89,53.628,94.827,51.1,94.771,0H4.442l.094,51.516L-.11,53.822l4.646,3.252v.079h.1l.285.2.02-.2H6.513s43.363,13.115,87.652.2h.662v-.2h.031Z" transform="translate(0.11)"/>
      </g>
      <g id="MLH_Logo" data-name="MLH Logo" transform="translate(17.003 16.029)">
        <path id="Path_388" data-name="Path 388" d="M71,157.363a.6.6,0,0,1,.31.31.564.564,0,0,1,.046.226v2.819a.084.084,0,0,1-.028.067.087.087,0,0,1-.067.026h-.682a.084.084,0,0,1-.064-.026.1.1,0,0,1-.026-.067v-2.545h-.566v2.545a.09.09,0,0,1-.026.067.082.082,0,0,1-.064.026H69.2a.09.09,0,0,1-.067-.026.092.092,0,0,1-.028-.067v-2.545h-.556v2.545a.085.085,0,0,1-.095.092h-.687a.082.082,0,0,1-.095-.092v-3.306a.082.082,0,0,1,.095-.095h3A.564.564,0,0,1,71,157.363Z" transform="translate(-67.669 -133.025)" fill="#fff"/>
        <path id="Path_389" data-name="Path 389" d="M87.423,157.32a.564.564,0,0,1,.226.046.6.6,0,0,1,.31.31A.564.564,0,0,1,88,157.9v2.819a.09.09,0,0,1-.026.067.1.1,0,0,1-.069.026h-.692a.09.09,0,0,1-.067-.026.092.092,0,0,1-.028-.067v-.892a.1.1,0,0,0-.023-.067.09.09,0,0,0-.067-.028h-.984a.09.09,0,0,0-.067.028.092.092,0,0,0-.028.067v.892a.082.082,0,0,1-.095.092h-.687a.082.082,0,0,1-.095-.092V157.9a.564.564,0,0,1,.046-.226.512.512,0,0,1,.123-.185.685.685,0,0,1,.187-.126.564.564,0,0,1,.226-.046Zm-.3,1.658V158.1H85.954v.877Z" transform="translate(-80.61 -133.028)" fill="#fff"/>
        <path id="Path_390" data-name="Path 390" d="M101.075,157.348a.09.09,0,0,1,.028.067v2.806a.579.579,0,0,1-.049.228.613.613,0,0,1-.123.185.561.561,0,0,1-.413.169h-1.5a.58.58,0,0,1-.584-.582v-1.064a.085.085,0,0,1,.095-.095h.687a.082.082,0,0,1,.095.095v.71a.09.09,0,0,0,.028.067.1.1,0,0,0,.067.023h.723a.1.1,0,0,0,.067-.023.09.09,0,0,0,.028-.067v-2.453a.1.1,0,0,1,.023-.067.079.079,0,0,1,.067-.028h.692A.084.084,0,0,1,101.075,157.348Z" transform="translate(-90.546 -133.027)" fill="#fff"/>
        <path id="Path_391" data-name="Path 391" d="M114.2,157.32a.567.567,0,0,1,.228.046.635.635,0,0,1,.185.126.582.582,0,0,1,.123.185.526.526,0,0,1,.049.226v2.307a.536.536,0,0,1-.049.228.613.613,0,0,1-.123.185.548.548,0,0,1-.185.126.567.567,0,0,1-.228.044h-1.761a.574.574,0,0,1-.582-.582V157.9a.561.561,0,0,1,.044-.226.549.549,0,0,1,.126-.185.671.671,0,0,1,.185-.126.577.577,0,0,1,.228-.046Zm-.3.846h-1.171v1.794h1.171Z" transform="translate(-100.529 -133.028)" fill="#fff"/>
        <path id="Path_392" data-name="Path 392" d="M129.365,160.722a.056.056,0,0,1,0,.059.059.059,0,0,1-.054.021h-.787a.154.154,0,0,1-.079-.021.161.161,0,0,1-.059-.059l-.528-.946a.036.036,0,0,0-.036-.018h-.592c-.018,0-.026,0-.026.023v.928a.082.082,0,0,1-.095.092h-.687a.085.085,0,0,1-.095-.092v-3.3a.085.085,0,0,1,.095-.095h2.25a.577.577,0,0,1,.228.046.659.659,0,0,1,.182.126.549.549,0,0,1,.126.185.564.564,0,0,1,.046.226v1.31a.564.564,0,0,1-.11.341.579.579,0,0,1-.287.208h-.015c-.023,0-.028.015,0,.028h0Zm-.989-2.594h-1.2v.848h1.2Z" transform="translate(-111.288 -133.026)" fill="#fff"/>
        <path id="Path_393" data-name="Path 393" d="M149.982,159.954a.085.085,0,0,1,.064.028.09.09,0,0,1,.026.067v.659a.09.09,0,0,1-.026.067.082.082,0,0,1-.064.026h-2.15a.082.082,0,0,1-.095-.092v-3.3a.082.082,0,0,1,.095-.095h.687a.085.085,0,0,1,.095.095v2.453a.087.087,0,0,0,.026.067.107.107,0,0,0,.069.023Z" transform="translate(-127.21 -133.025)" fill="#fff"/>
        <path id="Path_394" data-name="Path 394" d="M161.345,157.348a.087.087,0,0,1,.026.067v.625a.087.087,0,0,1-.026.067.108.108,0,0,1-.069.023H159.61a.023.023,0,0,0-.026.026v.543c0,.013,0,.021.026.021h1.422a.077.077,0,0,1,.064.026.092.092,0,0,1,.026.069v.5a.09.09,0,0,1-.026.067.079.079,0,0,1-.064.028H159.61c-.018,0-.026,0-.026.023v.256h0v.29c0,.018,0,.026.026.026h1.666a.087.087,0,0,1,.095.095v.623a.09.09,0,0,1-.026.067.1.1,0,0,1-.069.026H158.8a.082.082,0,0,1-.095-.092v-3.3a.09.09,0,0,1,.028-.067.085.085,0,0,1,.067-.028h2.473A.09.09,0,0,1,161.345,157.348Z" transform="translate(-135.369 -133.028)" fill="#fff"/>
        <path id="Path_395" data-name="Path 395" d="M174.554,157.32a.564.564,0,0,1,.226.046.6.6,0,0,1,.31.31.564.564,0,0,1,.046.226v2.819a.09.09,0,0,1-.026.067.1.1,0,0,1-.069.026h-.692a.09.09,0,0,1-.067-.026.092.092,0,0,1-.028-.067v-.892a.1.1,0,0,0-.023-.067.087.087,0,0,0-.064-.028h-.987a.1.1,0,0,0-.095.095v.892a.082.082,0,0,1-.095.092H172.3a.085.085,0,0,1-.095-.092V157.9a.564.564,0,0,1,.046-.226.513.513,0,0,1,.123-.185.684.684,0,0,1,.187-.126.564.564,0,0,1,.226-.046Zm-.3,1.658V158.1h-1.169v.877Z" transform="translate(-145.41 -133.028)" fill="#fff"/>
        <path id="Path_396" data-name="Path 396" d="M189.581,158.967a.09.09,0,0,1,.026.067v1.225a.576.576,0,0,1-.046.228.671.671,0,0,1-.126.185.548.548,0,0,1-.185.126.561.561,0,0,1-.226.044h-1.763a.561.561,0,0,1-.226-.044.587.587,0,0,1-.187-.126.531.531,0,0,1-.123-.185.576.576,0,0,1-.046-.228v-2.307a.564.564,0,0,1,.046-.226.513.513,0,0,1,.123-.185.684.684,0,0,1,.187-.126.564.564,0,0,1,.226-.046h2.05a.085.085,0,0,1,.067.028.09.09,0,0,1,.028.067v.656a.1.1,0,0,1-.095.095h-1.669a.09.09,0,0,0-.067.026.084.084,0,0,0-.028.064v1.612a.09.09,0,0,0,.028.067.1.1,0,0,0,.067.023h.987a.08.08,0,0,0,.087-.09v-.871a.1.1,0,0,1,.095-.095h.692A.1.1,0,0,1,189.581,158.967Z" transform="translate(-156.173 -133.065)" fill="#fff"/>
        <path id="Path_397" data-name="Path 397" d="M203.9,157.345a.09.09,0,0,1,.028.067v2.806a.579.579,0,0,1-.049.228.613.613,0,0,1-.123.185.562.562,0,0,1-.413.169h-1.761a.574.574,0,0,1-.582-.582v-2.806a.082.082,0,0,1,.092-.095h.677a.082.082,0,0,1,.095.095v2.453a.09.09,0,0,0,.028.067.1.1,0,0,0,.067.023h.987a.09.09,0,0,0,.064-.023.087.087,0,0,0,.026-.067v-2.453a.1.1,0,0,1,.095-.095h.692A.085.085,0,0,1,203.9,157.345Z" transform="translate(-166.819 -133.025)" fill="#fff"/>
        <path id="Path_398" data-name="Path 398" d="M218.122,157.348a.09.09,0,0,1,.028.067v.625a.09.09,0,0,1-.028.067.1.1,0,0,1-.067.023h-1.669a.023.023,0,0,0-.026.026v.543c0,.013,0,.021.026.021h1.425a.085.085,0,0,1,.064.026.105.105,0,0,1,.026.069v.5a.1.1,0,0,1-.026.067.087.087,0,0,1-.064.028h-1.425c-.015,0-.026,0-.026.023v.256h0v.29a.023.023,0,0,0,.026.026h1.669a.09.09,0,0,1,.067.026.1.1,0,0,1,.028.069v.623a.092.092,0,0,1-.028.067.09.09,0,0,1-.067.026h-2.473a.082.082,0,0,1-.095-.092v-3.3a.087.087,0,0,1,.026-.067.085.085,0,0,1,.069-.028h2.473A.085.085,0,0,1,218.122,157.348Z" transform="translate(-177.597 -133.027)" fill="#fff"/>
        <path id="Path_399" data-name="Path 399" d="M238.4,157.29a.085.085,0,0,1,.067.028.09.09,0,0,1,.028.067v3.3a.092.092,0,0,1-.028.067.09.09,0,0,1-.067.026h-.692a.09.09,0,0,1-.067-.026.092.092,0,0,1-.028-.067V159.53a.087.087,0,0,0-.09-.09h-.987a.09.09,0,0,0-.067.026.082.082,0,0,0-.026.064v1.151a.085.085,0,0,1-.095.092h-.687a.082.082,0,0,1-.095-.092v-3.3a.082.082,0,0,1,.095-.095h.687a.085.085,0,0,1,.095.095v1.1a.085.085,0,0,0,.092.095h.987a.084.084,0,0,0,.064-.028.09.09,0,0,0,.026-.067v-1.115a.09.09,0,0,1,.028-.067.085.085,0,0,1,.067-.028Z" transform="translate(-192.529 -132.998)" fill="#fff"/>
        <path id="Path_400" data-name="Path 400" d="M252.4,157.32a.567.567,0,0,1,.228.046.636.636,0,0,1,.185.126.582.582,0,0,1,.123.185.526.526,0,0,1,.049.226v2.819a.092.092,0,0,1-.028.067.09.09,0,0,1-.067.026H252.2a.087.087,0,0,1-.067-.026.092.092,0,0,1-.028-.067v-.892a.09.09,0,0,0-.026-.067.085.085,0,0,0-.064-.028h-.987a.1.1,0,0,0-.095.095v.892a.082.082,0,0,1-.092.092h-.687a.082.082,0,0,1-.095-.092V157.9a.611.611,0,0,1,.044-.226.549.549,0,0,1,.126-.185.671.671,0,0,1,.185-.126.577.577,0,0,1,.228-.046Zm-.308,1.658V158.1h-1.171v.877Z" transform="translate(-203.306 -133.028)" fill="#fff"/>
        <path id="Path_401" data-name="Path 401" d="M265.382,158.228a.082.082,0,0,0-.026.064V159.9a.087.087,0,0,0,.026.067.1.1,0,0,0,.069.023h1.6a.1.1,0,0,1,.095.095v.659a.092.092,0,0,1-.028.067.09.09,0,0,1-.067.026h-1.986a.562.562,0,0,1-.226-.044.588.588,0,0,1-.187-.126.575.575,0,0,1-.126-.185.623.623,0,0,1-.044-.228v-2.307a.609.609,0,0,1,.044-.226.548.548,0,0,1,.126-.185.686.686,0,0,1,.187-.126.564.564,0,0,1,.226-.046h1.986a.085.085,0,0,1,.067.028.09.09,0,0,1,.028.067v.656a.1.1,0,0,1-.095.095h-1.6A.092.092,0,0,0,265.382,158.228Z" transform="translate(-214.033 -133.065)" fill="#fff"/>
        <path id="Path_402" data-name="Path 402" d="M279.948,158.785a.023.023,0,0,0,0,.033l1.164,1.9a.057.057,0,0,1,0,.059.059.059,0,0,1-.054.021h-.825a.156.156,0,0,1-.141-.079l-.751-1.358c0-.015-.018-.018-.026,0l-.413.454a.189.189,0,0,0-.044.072.283.283,0,0,0-.015.087v.738a.085.085,0,0,1-.095.092h-.687a.082.082,0,0,1-.095-.092v-3.3a.082.082,0,0,1,.095-.095h.682a.085.085,0,0,1,.095.095v1.479l1.281-1.5a.159.159,0,0,1,.069-.049.185.185,0,0,1,.085-.021h.825c.028,0,.044,0,.049.021s0,.028-.018.049Z" transform="translate(-224.062 -133.025)" fill="#fff"/>
        <path id="Path_403" data-name="Path 403" d="M293.623,160.707a.085.085,0,0,1-.095.092h-.687a.082.082,0,0,1-.095-.092v-3.3a.082.082,0,0,1,.095-.095h.687a.085.085,0,0,1,.095.095Z" transform="translate(-235.054 -133.025)" fill="#fff"/>
        <path id="Path_404" data-name="Path 404" d="M301.787,157.363a.636.636,0,0,1,.185.126.581.581,0,0,1,.123.185.566.566,0,0,1,.049.226v2.819a.092.092,0,0,1-.028.067.09.09,0,0,1-.067.026h-.692a.077.077,0,0,1-.064-.026.09.09,0,0,1-.026-.067V158.26a.085.085,0,0,0-.028-.064.09.09,0,0,0-.067-.026h-.987a.09.09,0,0,0-.067.026.082.082,0,0,0-.026.064v2.455a.085.085,0,0,1-.095.092h-.687a.082.082,0,0,1-.095-.092v-3.3a.082.082,0,0,1,.095-.095h2.248A.577.577,0,0,1,301.787,157.363Z" transform="translate(-239.866 -133.025)" fill="#fff"/>
        <path id="Path_405" data-name="Path 405" d="M316.581,158.967a.092.092,0,0,1,.028.067v1.225a.58.58,0,0,1-.049.228.613.613,0,0,1-.123.185.549.549,0,0,1-.185.126.574.574,0,0,1-.228.044h-1.761a.579.579,0,0,1-.584-.582v-2.307a.564.564,0,0,1,.046-.226.549.549,0,0,1,.126-.185.67.67,0,0,1,.185-.126.576.576,0,0,1,.228-.046h2.05a.084.084,0,0,1,.067.028.09.09,0,0,1,.028.067v.656a.1.1,0,0,1-.095.095h-1.668a.09.09,0,0,0-.067.026.085.085,0,0,0-.028.064v1.612a.09.09,0,0,0,.028.067.1.1,0,0,0,.067.023h.987a.09.09,0,0,0,.064-.023.087.087,0,0,0,.026-.067v-.871a.089.089,0,0,1,.026-.067.1.1,0,0,1,.069-.028h.692A.092.092,0,0,1,316.581,158.967Z" transform="translate(-250.623 -133.065)" fill="#fff"/>
        <path id="Path_406" data-name="Path 406" d="M88.656,62.842a3.8,3.8,0,0,1,1.164.787,3.76,3.76,0,0,1,.787,1.161,3.47,3.47,0,0,1,.3,1.428V84.5a.569.569,0,0,1-.174.423.577.577,0,0,1-.423.174H85.936a.528.528,0,0,1-.408-.174.6.6,0,0,1-.156-.423V67.881H81.836V84.5a.6.6,0,0,1-.159.423.528.528,0,0,1-.408.174H77.314a.582.582,0,0,1-.425-.174.566.566,0,0,1-.172-.423V67.881H73.193V84.5a.528.528,0,0,1-.584.6H68.252a.528.528,0,0,1-.6-.6V63.142a.528.528,0,0,1,.6-.6H87.218A3.529,3.529,0,0,1,88.656,62.842Z" transform="translate(-67.649 -62.539)" fill="#fff"/>
        <path id="Path_407" data-name="Path 407" d="M88.663,62.843a3.8,3.8,0,0,1,1.164.787,3.76,3.76,0,0,1,.787,1.161,3.47,3.47,0,0,1,.3,1.428v1.63l-5.536.033H73.2l-5.536-.033V63.143a.528.528,0,0,1,.595-.6H87.225A3.529,3.529,0,0,1,88.663,62.843Z" transform="translate(-67.657 -62.54)" fill="#fff"/>
        <path id="Path_408" data-name="Path 408" d="M187.476,79.655a.564.564,0,0,1,.433.177.6.6,0,0,1,.167.436v4.252a.6.6,0,0,1-.167.436.564.564,0,0,1-.433.177H172.5a.551.551,0,0,1-.633-.613V63.2a.551.551,0,0,1,.633-.613h4.6a.551.551,0,0,1,.633.613v15.89a.531.531,0,0,0,.185.42.651.651,0,0,0,.449.161Z" transform="translate(-145.154 -62.572)" fill="#fff"/>
        <path id="Path_409" data-name="Path 409" d="M177.683,85.132H172.5a.551.551,0,0,1-.631-.613V63.2a.551.551,0,0,1,.631-.613h4.588a.551.551,0,0,1,.633.613v15.89C177.719,79.247,177.683,85.132,177.683,85.132Z" transform="translate(-145.154 -62.572)" fill="#fff"/>
        <path id="Path_410" data-name="Path 410" d="M267.588,62.559a.631.631,0,0,1,.454.177.587.587,0,0,1,.184.438V84.563a.577.577,0,0,1-.184.436.623.623,0,0,1-.454.179h-4.657a.623.623,0,0,1-.454-.179.577.577,0,0,1-.185-.436V77.1a.564.564,0,0,0-.167-.42.607.607,0,0,0-.436-.161h-6.536a.653.653,0,0,0-.451.161.533.533,0,0,0-.185.42v7.463q0,.615-.638.615h-4.613q-.638,0-.638-.615V63.185q0-.615.638-.615h4.613q.638,0,.638.615V70.41a.551.551,0,0,0,.636.615h6.536a.577.577,0,0,0,.436-.177.618.618,0,0,0,.167-.438V63.185a.587.587,0,0,1,.185-.438.63.63,0,0,1,.454-.177Z" transform="translate(-202.245 -62.554)" fill="#fff"/>
        <path id="Path_411" data-name="Path 411" d="M254.52,77.129v7.463q0,.615-.638.615h-4.613q-.638,0-.638-.615V63.215q0-.615.638-.615h4.613q.638,0,.638.615V77.14Z" transform="translate(-202.245 -62.584)" fill="#fff"/>
        <path id="Path_412" data-name="Path 412" d="M307.235,62.559a.631.631,0,0,1,.454.177.587.587,0,0,1,.185.438V84.563a.577.577,0,0,1-.185.436.623.623,0,0,1-.454.179h-4.657a.623.623,0,0,1-.454-.179.577.577,0,0,1-.185-.436V63.185a.587.587,0,0,1,.185-.438.63.63,0,0,1,.454-.177Z" transform="translate(-241.892 -62.554)" fill="#fff"/>
      </g>
      <path id="Path_413" data-name="Path 413" d="M69.974,450.771v2.607a.487.487,0,0,0,.513.438H80.3a.49.49,0,0,1,.379.161.566.566,0,0,1,.146.395v3.534a.566.566,0,0,1-.146.395.49.49,0,0,1-.379.161H65.942a.492.492,0,0,1-.556-.556v-8.373a3.266,3.266,0,0,1,.256-1.315,3.388,3.388,0,0,1,.73-1.082,3.332,3.332,0,0,1,1.094-.73,3.432,3.432,0,0,1,1.33-.256h6.92a.543.543,0,0,0,.554-.554v-2.368a.546.546,0,0,0-.554-.554H66.565a.513.513,0,0,1-.513-.525v-3.588a.569.569,0,0,1,.146-.395.492.492,0,0,1,.367-.167h10.9a3.15,3.15,0,0,1,1.315.277,3.757,3.757,0,0,1,1.082.73,3.2,3.2,0,0,1,.73,1.082,3.375,3.375,0,0,1,.256,1.33v.818a.123.123,0,0,1,.028.087v7.466a.487.487,0,0,1-.161.379.559.559,0,0,1-.392.146H70.5A.513.513,0,0,0,69.974,450.771Z" transform="translate(-48.739 -326.659)" fill="#fff"/>
      <path id="Path_414" data-name="Path 414" d="M156.562,438a3.273,3.273,0,0,1,1.33.277,3.437,3.437,0,0,1,1.809,1.812,3.258,3.258,0,0,1,.279,1.33v13.614a3.275,3.275,0,0,1-.279,1.33,3.685,3.685,0,0,1-.73,1.094,3.19,3.19,0,0,1-1.079.73,3.393,3.393,0,0,1-1.33.256h-8.8a3.391,3.391,0,0,1-3.416-3.419v-13.6a3.419,3.419,0,0,1,.256-1.33,3.279,3.279,0,0,1,.73-1.082,3.7,3.7,0,0,1,1.1-.73,3.253,3.253,0,0,1,1.328-.277h8.8Zm-1.538,4.967h-5.708v10.508h5.708Z" transform="translate(-107.641 -326.659)" fill="#fff"/>
      <path id="Path_415" data-name="Path 415" d="M228.2,450.793V453.4a.487.487,0,0,0,.525.438h9.819a.49.49,0,0,1,.379.161.567.567,0,0,1,.146.395v3.534a.566.566,0,0,1-.146.395.49.49,0,0,1-.379.161H224.172a.492.492,0,0,1-.556-.556v-8.373a3.309,3.309,0,0,1,.256-1.315,3.388,3.388,0,0,1,.73-1.082,3.332,3.332,0,0,1,1.094-.73,3.44,3.44,0,0,1,1.33-.256h6.92a.546.546,0,0,0,.556-.554V443.25a.551.551,0,0,0-.556-.554h-9.175a.513.513,0,0,1-.525-.525v-3.588a.569.569,0,0,1,.146-.395.492.492,0,0,1,.379-.159h10.9a3.17,3.17,0,0,1,1.315.277,3.75,3.75,0,0,1,1.079.73,3.2,3.2,0,0,1,.73,1.082,3.376,3.376,0,0,1,.256,1.33v.818a.123.123,0,0,1,.028.087v7.458a.492.492,0,0,1-.159.379.569.569,0,0,1-.395.146h-9.8A.513.513,0,0,0,228.2,450.793Z" transform="translate(-166.761 -326.68)" fill="#fff"/>
      <path id="Path_416" data-name="Path 416" d="M305.8,438.535v19.343a.492.492,0,0,1-.556.556h-4.032a.49.49,0,0,1-.554-.556V443.445c0-.079-.044-.113-.133-.1a.613.613,0,0,0-.3.159l-1.433,1.112c-.115.1-.218.12-.308.072a.323.323,0,0,1-.131-.308v-4.093a1.04,1.04,0,0,1,.131-.482,1.37,1.37,0,0,1,.308-.395l1.433-1.11a1.3,1.3,0,0,1,.466-.233,1.824,1.824,0,0,1,.513-.087h4.032a.489.489,0,0,1,.569.556Z" transform="translate(-222.45 -326.637)" fill="#fff"/>
      <path id="Path_417" data-name="Path 417" d="M69.748,546.475a1.835,1.835,0,0,1,.636.423,2.169,2.169,0,0,1,.423.625,1.85,1.85,0,0,1,.159.769v3.181a1.921,1.921,0,0,1-.159.769,2.138,2.138,0,0,1-.423.625,1.835,1.835,0,0,1-.628.423,1.943,1.943,0,0,1-.769.154H62.23a.285.285,0,0,1-.323-.323v-2.05a.3.3,0,0,1,.095-.228.31.31,0,0,1,.228-.095h5.751a.326.326,0,0,0,.228-.085.282.282,0,0,0,.092-.218v-1.4a.32.32,0,0,0-.32-.323h-4.1a1.971,1.971,0,0,1-1.4-.574,1.928,1.928,0,0,1-.423-.625,1.907,1.907,0,0,1-.154-.769v-3.168a1.943,1.943,0,0,1,.154-.769,1.835,1.835,0,0,1,.423-.628,2.139,2.139,0,0,1,.633-.423,1.924,1.924,0,0,1,.769-.159h6.387a.284.284,0,0,1,.32.32v2.086a.287.287,0,0,1-.092.22.326.326,0,0,1-.228.085h-5.4a.287.287,0,0,0-.22.092.326.326,0,0,0-.085.228v1.371a.326.326,0,0,0,.085.228.287.287,0,0,0,.22.092h4.1A1.944,1.944,0,0,1,69.748,546.475Z" transform="translate(-46.133 -404.063)" fill="#fff"/>
      <path id="Path_418" data-name="Path 418" d="M115.366,541.71a.312.312,0,0,1,.095.228v2.132a.29.29,0,0,1-.095.22.326.326,0,0,1-.228.085h-5.667a.074.074,0,0,0-.085.085V546.3c0,.046.028.067.085.067h4.839a.29.29,0,0,1,.22.095.326.326,0,0,1,.085.228v1.681a.325.325,0,0,1-.085.228.286.286,0,0,1-.22.092h-4.839a.074.074,0,0,0-.085.085v1.827a.074.074,0,0,0,.085.085h5.667a.31.31,0,0,1,.228.092.317.317,0,0,1,.095.228v2.114a.31.31,0,0,1-.095.228.305.305,0,0,1-.228.095h-8.407a.285.285,0,0,1-.32-.323v-11.2a.315.315,0,0,1,.32-.32h8.407a.31.31,0,0,1,.228.1Z" transform="translate(-79.325 -404.07)" fill="#fff"/>
      <path id="Path_419" data-name="Path 419" d="M159.257,541.61a1.9,1.9,0,0,1,.769.159,1.976,1.976,0,0,1,1.051,1.051,1.9,1.9,0,0,1,.159.769v9.539a.319.319,0,0,1-.32.323h-2.35a.32.32,0,0,1-.323-.323V550.1a.326.326,0,0,0-.085-.228.287.287,0,0,0-.22-.092H154.59a.317.317,0,0,0-.231.092.31.31,0,0,0-.092.228v3.027a.285.285,0,0,1-.32.323h-2.335a.285.285,0,0,1-.32-.323v-9.539a1.939,1.939,0,0,1,.151-.769,1.87,1.87,0,0,1,.423-.628,2.173,2.173,0,0,1,.633-.423,1.925,1.925,0,0,1,.769-.159Zm-1.025,5.639v-2.976h-3.965v2.978Z" transform="translate(-112.796 -404.07)" fill="#fff"/>
      <path id="Path_420" data-name="Path 420" d="M207.3,546.475a1.825,1.825,0,0,1,.625.423,2.169,2.169,0,0,1,.423.625,1.809,1.809,0,0,1,.159.769v3.181a1.878,1.878,0,0,1-.159.769,2.141,2.141,0,0,1-.423.633,1.825,1.825,0,0,1-.625.423,1.965,1.965,0,0,1-.769.154h-6.751a.285.285,0,0,1-.32-.323v-2.05a.321.321,0,0,1,.32-.323h5.751a.325.325,0,0,0,.228-.085.282.282,0,0,0,.092-.218v-1.4a.32.32,0,0,0-.32-.323h-4.1a1.963,1.963,0,0,1-.769-.151,1.985,1.985,0,0,1-.633-.423,1.929,1.929,0,0,1-.423-.625,1.9,1.9,0,0,1-.151-.769v-3.176a1.941,1.941,0,0,1,.151-.769,1.834,1.834,0,0,1,.423-.628,2.172,2.172,0,0,1,.633-.423,1.924,1.924,0,0,1,.769-.159h6.377a.284.284,0,0,1,.32.32v2.086a.287.287,0,0,1-.092.22.326.326,0,0,1-.228.085h-5.4a.282.282,0,0,0-.22.092.326.326,0,0,0-.085.228v1.371a.325.325,0,0,0,.085.228.282.282,0,0,0,.22.092h4.1A1.964,1.964,0,0,1,207.3,546.475Z" transform="translate(-148.716 -404.063)" fill="#fff"/>
      <path id="Path_421" data-name="Path 421" d="M251.8,541.61a1.925,1.925,0,0,1,.769.159,1.984,1.984,0,0,1,1.048,1.051,1.864,1.864,0,0,1,.161.769v7.884a1.883,1.883,0,0,1-.161.769,2.142,2.142,0,0,1-.423.633,1.824,1.824,0,0,1-.625.423,1.969,1.969,0,0,1-.769.154h-5.987a1.94,1.94,0,0,1-.769-.154,1.917,1.917,0,0,1-.636-.423,1.96,1.96,0,0,1-.423-.633,2.008,2.008,0,0,1-.151-.769v-7.884a1.987,1.987,0,0,1,.151-.769,1.91,1.91,0,0,1,.423-.628,2.185,2.185,0,0,1,.636-.423,1.9,1.9,0,0,1,.769-.159Zm-1.025,2.876h-3.965v6.09h3.988Z" transform="translate(-181.81 -404.07)" fill="#fff"/>
      <path id="Path_422" data-name="Path 422" d="M301.983,541.7a.3.3,0,0,1,.095.228v11.2a.3.3,0,0,1-.095.228.3.3,0,0,1-.228.095H299.32a.553.553,0,0,1-.272-.077.529.529,0,0,1-.2-.195l-3.737-6.9v6.851a.284.284,0,0,1-.323.323h-2.335a.285.285,0,0,1-.32-.323V541.923a.284.284,0,0,1,.32-.32h2.4a.562.562,0,0,1,.269.074.531.531,0,0,1,.2.195l3.757,6.92v-6.869a.315.315,0,0,1,.32-.32h2.35A.31.31,0,0,1,301.983,541.7Z" transform="translate(-217.829 -404.063)" fill="#fff"/>
    </g>
  </g>
</svg>
