<svg viewBox="0 0 480 480" fill="none" xmlns="http://www.w3.org/2000/svg">
<path d="M472 432H424V263.088C426.628 263.667 429.309 263.973 432 264C454.08 263.974 471.974 246.08 472 224C472 223.416 471.936 222.834 471.808 222.264L455.808 150.264C454.994 146.604 451.749 144.001 448 144H424V120C424 115.582 420.418 112 416 112H352V96H368C372.418 96 376 92.418 376 88V8C376 3.582 372.418 0 368 0H112C107.582 0 104 3.582 104 8V88C104 92.418 107.582 96 112 96H128V112H64C59.582 112 56 115.582 56 120V144H32C28.251 144.001 25.005 146.604 24.192 150.264L8.192 222.264C8.064 222.834 8 223.416 8 224C8.026 246.08 25.92 263.974 48 264C50.691 263.973 53.372 263.667 56 263.088V432H8C3.582 432 0 435.582 0 440V472C0 476.418 3.582 480 8 480H472C476.418 480 480 476.418 480 472V440C480 435.582 476.418 432 472 432ZM441.6 160L456 224.8C455.568 237.741 444.949 248.007 432 248C427.782 247.999 423.64 246.875 420 244.744C414.399 241.486 410.346 236.112 408.752 229.832C408.23 227.933 407.977 225.97 408 224C408 223.706 407.984 223.412 407.952 223.12L400.936 160H441.6ZM368 304H288C283.582 304 280 307.582 280 312V432H72V255.712C75.025 253.479 77.718 250.829 80 247.84C93.048 265.513 117.952 269.263 135.625 256.215C138.819 253.857 141.642 251.034 144 247.84C157.048 265.513 181.952 269.263 199.625 256.215C202.819 253.857 205.642 251.034 208 247.84C221.048 265.513 245.952 269.263 263.625 256.215C266.819 253.857 269.642 251.034 272 247.84C285.048 265.513 309.952 269.263 327.625 256.215C330.819 253.857 333.642 251.034 336 247.84C349.055 265.513 373.965 269.257 391.638 256.202C394.826 253.847 397.645 251.028 400 247.84C402.281 250.822 404.975 253.465 408 255.688V432H376V312C376 307.582 372.418 304 368 304ZM360 320V432H296V320H360ZM88 224.416L95.2 160H143.104L136.088 223.12C136.042 223.412 136.013 223.705 136 224C136.019 226.036 135.749 228.064 135.2 230.024C131.821 242.841 118.692 250.492 105.875 247.113C97.448 244.892 90.888 238.277 88.736 229.832C88.253 228.067 88.006 226.246 88 224.416ZM152 224.416L159.2 160H200V224C200.019 226.036 199.749 228.064 199.2 230.024C195.821 242.841 182.692 250.492 169.875 247.113C161.448 244.892 154.888 238.277 152.736 229.832C152.253 228.067 152.006 226.246 152 224.416ZM216 224V160H264V224C264.019 226.036 263.749 228.064 263.2 230.024C259.821 242.841 246.692 250.492 233.875 247.113C225.448 244.892 218.888 238.277 216.736 229.832C216.219 227.932 215.972 225.969 216 224ZM280 224V160H320.8L328 224.416C327.979 226.31 327.71 228.192 327.2 230.016C323.821 242.833 310.692 250.484 297.875 247.105C289.448 244.884 282.888 238.269 280.736 229.824C280.22 227.927 279.972 225.966 280 224ZM336.936 160H384.84L392.04 224.416C392.019 226.31 391.75 228.192 391.24 230.016C387.861 242.833 374.732 250.484 361.915 247.105C353.488 244.884 346.928 238.269 344.776 229.824C344.247 227.928 343.985 225.968 344 224C344 223.706 343.984 223.412 343.952 223.12L336.936 160ZM120 80V16H360V80H120ZM336 96V112H144V96H336ZM72 128H408V144H72V128ZM48 248C35.051 248.007 24.432 237.741 24 224.8L38.4 160H79.048L72.032 223.12C72.005 223.413 71.995 223.706 72 224C72.016 226.03 71.746 228.053 71.2 230.008C69.587 236.22 65.553 241.527 60 244.744C56.36 246.875 52.218 247.999 48 248ZM464 464H16V448H464V464Z" fill="#00A878"/>
<path d="M240 304H112C107.582 304 104 307.582 104 312V392C104 396.418 107.582 400 112 400H240C244.418 400 248 396.418 248 392V312C248 307.582 244.418 304 240 304ZM232 384H120V320H232V384Z" fill="#00A878"/>
</svg>
