<svg width="139" height="44" viewBox="0 0 139 44" fill="none" xmlns="http://www.w3.org/2000/svg">
<path d="M24.6 15.0999C20.2 13.7999 15.4 13.2999 11 14.7999C7.29999 15.9999 4.09999 18.5999 2.39999 22.1999C0.599993 26.1999 0.499993 31.0999 2.09999 35.1999C3.49999 38.8999 6.49999 41.5999 10.2 42.8999C12.3 43.6999 14.5 43.9999 16.8 43.8999C19.4 43.7999 22.3 43.4999 24.7 42.2999V34.6999C20.7 36.1999 14.7 36.4999 12 32.4999C10.7 30.5999 10.7 27.9999 11.6 25.9999C12.4 24.0999 14.2 22.8999 16.1 22.3999C19 21.5999 21.9 22.2999 24.7 23.0999L24.6 15.0999Z" fill="#C92027"/>
<path d="M113.4 43.7998C117.2 43.7998 119.9 42.3998 121.9 40.1998V43.1998H131.7V26.5998C131.7 23.9998 131.5 21.0998 130 18.7998C128.8 16.8998 126.8 15.5998 124.7 14.8998C118.7 12.7998 111.9 14.2998 106.1 16.1998V23.4998C109.5 22.1998 113.5 21.4998 117.2 21.7998C119.9 21.9998 122 23.4998 122 26.3998V26.8998C115.2 24.4998 103.8 25.4998 103.8 34.7998V34.8998C103.8 40.5998 108 43.7998 113.4 43.7998ZM117.1 37.4998C115 37.4998 113.5 36.2998 113.5 34.3998V34.2998C113.5 29.8998 119.4 30.4998 122.1 31.6998C122.1 35.1998 120 37.4998 117.1 37.4998Z" fill="#C92027"/>
<path d="M73.4 14.7999H83V19.0999L83.4 18.5999C86.2 14.9999 90.4 13.0999 95 14.3999C98.8 15.4999 100.9 18.7999 101.3 22.6999C101.5 24.4999 101.4 26.3999 101.4 28.1999C101.4 31.1999 101.4 34.1999 101.4 37.1999C101.4 39.1999 101.4 41.1999 101.4 43.1999H91.7C91.7 37.9999 91.8 32.7999 91.7 27.6999C91.7 25.3999 90.7 23.0999 88.1 22.6999C85.7 22.2999 83.7 23.6999 83.1 25.9999C83 26.9999 83 28.0999 83 29.1999C83 30.7999 83 32.3999 83 33.9999C83 37.0999 83 40.0999 83 43.1999H73.3L73.4 14.7999Z" fill="#C92027"/>
<path d="M70.4 39.5999C67.3 41.6999 63.9 43.2999 60.1 43.6999C56.1 44.0999 52 43.1999 48.8 40.8999C44.4 42.8999 39.3 44.4999 34.5 42.9999C30.9 41.8999 29.1 38.6999 28.6 35.1999C28.4 33.4999 28.5 31.6999 28.5 29.8999C28.5 26.9999 28.5 24.0999 28.5 21.0999C28.5 19.0999 28.5 16.9999 28.5 14.9999H37.5C37.5 19.4999 37.6 24.0999 37.7 28.5999C37.8 30.6999 37.6 33.2999 38.9 34.9999C40.2 36.7999 42.7 36.3999 44.6 35.8999C40.6 27.5999 45 16.4999 53.9 13.6999C57.6 12.4999 62.5 12.6999 65.5 15.3999C67.9 17.4999 68.6 20.7999 67.9 23.7999C67.3 26.0999 66 27.9999 64.5 29.6999C62.5 31.9999 60.1 33.8999 57.6 35.6999C61 38.1999 66.6 36.3999 70.4 33.9999C70.4 33.9999 70.4 39.5999 70.4 39.5999ZM60.1 27.1999C61.2 25.7999 62.5 23.2999 60.8 21.7999C59.7 20.7999 57.9 20.9999 56.7 21.6999C52.9 23.7999 52.6 28.5999 54.5 32.0999C56.8 30.4999 58.7 28.8999 60.1 27.1999C58.7 28.8999 63.4 22.9999 60.1 27.1999Z" fill="#C92027"/>
<path d="M38.5 5.6999C38.5 8.5999 36.1 10.9999 33.2 10.9999C30.3 10.9999 27.9 8.5999 27.9 5.6999C27.9 2.7999 30.3 0.399902 33.2 0.399902C36 0.399902 38.5 2.7999 38.5 5.6999Z" fill="#C92027"/>
<path d="M136.7 39.5999C139 39.5999 139 43.0999 136.7 43.0999C134.4 43.0999 134.4 39.5999 136.7 39.5999ZM136.7 42.8999C138.7 42.8999 138.6 39.6999 136.6 39.8999C134.7 39.9999 134.8 42.8999 136.7 42.8999ZM136 40.3999H136.7C137.5 40.3999 137.7 41.4999 136.9 41.4999C137.1 41.7999 137.3 42.0999 137.5 42.3999H137.2L136.6 41.4999H136.2V42.3999H136V40.3999ZM136.3 41.2999H136.6C137 41.2999 137.4 41.0999 137 40.6999C136.9 40.5999 136.4 40.5999 136.3 40.5999V41.2999V41.2999Z" fill="#C92027"/>
</svg>
