<svg width="1920" height="556" viewBox="0 0 1920 556" fill="none" xmlns="http://www.w3.org/2000/svg">
<g clip-path="url(#clip0)">
<path d="M949.165 273.86C949.165 273.86 1259.51 223.826 1428.51 214.76C1597.5 205.694 1919.79 205.508 1919.79 205.508V508.099H948.15V273.86" fill="#00A878"/>
<path d="M0 248.5C574.492 152.559 1166.18 243.373 1684.99 508.094H0V248.5Z" fill="#00805B"/>
<g style="mix-blend-mode:overlay" opacity="0.2">
<path d="M123.319 70.7334H37.3259V89.9484H123.319V70.7334Z" fill="#FBFFFE"/>
</g>
<g style="mix-blend-mode:overlay" opacity="0.2">
<path d="M267.257 70.7334H181.264V89.9484H267.257V70.7334Z" fill="#FBFFFE"/>
</g>
<path d="M245.876 209.652C285.629 209.652 317.855 177.426 317.855 137.673C317.855 97.9204 285.629 65.6943 245.876 65.6943C206.123 65.6943 173.897 97.9204 173.897 137.673C173.897 177.426 206.123 209.652 245.876 209.652Z" fill="#00A878"/>
<path d="M245.629 103.549V281.739" stroke="#002E20" stroke-width="3.459" stroke-linecap="round" stroke-linejoin="round"/>
<path d="M201.545 129.274L245.876 173.605" stroke="#002E20" stroke-width="3.459" stroke-linecap="round" stroke-linejoin="round"/>
<path d="M245.875 173.161L289.318 129.718" stroke="#002E20" stroke-width="3.459" stroke-linecap="round" stroke-linejoin="round"/>
<path d="M375.19 258.448C379.79 258.448 383.52 257.185 383.52 255.627C383.52 254.069 379.79 252.806 375.19 252.806C370.589 252.806 366.86 254.069 366.86 255.627C366.86 257.185 370.589 258.448 375.19 258.448Z" fill="#FAAD14"/>
<path d="M219.632 355.585C224.233 355.585 227.962 354.322 227.962 352.764C227.962 351.206 224.233 349.943 219.632 349.943C215.031 349.943 211.302 351.206 211.302 352.764C211.302 354.322 215.031 355.585 219.632 355.585Z" fill="#FAAD14"/>
<path d="M764.141 363.596C768.742 363.596 772.471 362.333 772.471 360.775C772.471 359.217 768.742 357.954 764.141 357.954C759.541 357.954 755.811 359.217 755.811 360.775C755.811 362.333 759.541 363.596 764.141 363.596Z" fill="#FAAD14"/>
<path d="M1725.71 363.596C1730.31 363.596 1734.04 362.333 1734.04 360.775C1734.04 359.217 1730.31 357.954 1725.71 357.954C1721.11 357.954 1717.38 359.217 1717.38 360.775C1717.38 362.333 1721.11 363.596 1725.71 363.596Z" fill="#FAAD14"/>
<path d="M172.312 372.036C170.708 374.731 168.829 377.252 166.705 379.559C163.352 383.159 149.482 398.095 130.563 397.711C112.972 397.356 100.51 383.924 97.049 380.189C59.883 340.108 93.821 215.655 125.475 202.373C127.148 201.65 128.946 201.26 130.769 201.224C161.916 201.047 201.955 322.791 172.312 372.036Z" fill="#00A878"/>
<path d="M130.564 264.368V451.001" stroke="#002E20" stroke-width="2.821" stroke-linecap="round" stroke-linejoin="round"/>
<path d="M130.564 340.5L172.992 307.8" stroke="#002E20" stroke-width="2.821" stroke-linecap="round" stroke-linejoin="round"/>
<path d="M94.9551 283.942L130.637 319.624" stroke="#002E20" stroke-width="2.821" stroke-linecap="round" stroke-linejoin="round"/>
<path d="M1177.34 338.879C1175.73 341.573 1173.85 344.095 1171.73 346.403C1168.38 350.003 1154.5 364.938 1135.59 364.556C1118 364.199 1105.53 350.767 1102.07 347.033C1064.91 306.952 1098.84 182.5 1130.5 169.217C1132.17 168.493 1133.97 168.103 1135.79 168.068C1166.94 167.889 1206.98 289.635 1177.34 338.879Z" fill="#00A878"/>
<path d="M1135.59 231.21V417.843" stroke="#002E20" stroke-width="2.821" stroke-linecap="round" stroke-linejoin="round"/>
<path d="M1135.59 307.344L1178.02 274.644" stroke="#002E20" stroke-width="2.821" stroke-linecap="round" stroke-linejoin="round"/>
<path d="M1099.98 250.785L1135.66 286.467" stroke="#002E20" stroke-width="2.821" stroke-linecap="round" stroke-linejoin="round"/>
<path d="M1691.36 384.411C1689.76 387.106 1687.88 389.627 1685.75 391.934C1682.4 395.534 1668.53 410.47 1649.61 410.086C1632.02 409.731 1619.56 396.297 1616.1 392.563C1578.93 352.483 1612.87 228.03 1644.52 214.747C1646.2 214.024 1648 213.634 1649.82 213.598C1680.97 213.421 1721 335.166 1691.36 384.411Z" fill="#00805B"/>
<path d="M1649.61 276.742V492.536" stroke="#002E20" stroke-width="2.821" stroke-linecap="round" stroke-linejoin="round"/>
<path d="M1649.61 352.875L1692.04 320.175" stroke="#002E20" stroke-width="2.821" stroke-linecap="round" stroke-linejoin="round"/>
<path d="M1614 296.317L1649.69 331.999" stroke="#002E20" stroke-width="2.821" stroke-linecap="round" stroke-linejoin="round"/>
<path d="M1833 285.406C1831.39 288.101 1829.51 290.622 1827.39 292.929C1824.04 296.529 1810.17 311.464 1791.25 311.081C1773.66 310.726 1761.19 297.292 1757.73 293.559C1720.57 253.478 1754.5 129.026 1786.16 115.743C1787.83 115.02 1789.63 114.63 1791.45 114.594C1822.6 114.415 1862.64 236.161 1833 285.406Z" fill="#00805B"/>
<path d="M1791.25 177.737V364.37" stroke="#002E20" stroke-width="2.821" stroke-linecap="round" stroke-linejoin="round"/>
<path d="M1791.25 253.87L1833.68 221.17" stroke="#002E20" stroke-width="2.821" stroke-linecap="round" stroke-linejoin="round"/>
<path d="M1755.64 197.312L1791.32 232.994" stroke="#002E20" stroke-width="2.821" stroke-linecap="round" stroke-linejoin="round"/>
<path opacity="0.5" d="M703.674 320.592C740.779 320.592 770.858 314.277 770.858 306.486C770.858 298.696 740.779 292.38 703.674 292.38C666.57 292.38 636.49 298.696 636.49 306.486C636.49 314.277 666.57 320.592 703.674 320.592Z" fill="#003225"/>
<path opacity="0.5" d="M858.787 320.592C895.892 320.592 925.971 314.277 925.971 306.486C925.971 298.696 895.892 292.38 858.787 292.38C821.682 292.38 791.603 298.696 791.603 306.486C791.603 314.277 821.682 320.592 858.787 320.592Z" fill="#003225"/>
<path d="M834.62 291.865L828.109 285.265L830.961 295.665L834.62 291.859" fill="#002E20"/>
<path d="M898.165 221.381L905.199 212.347C905.733 211.662 906.465 211.158 907.295 210.904C908.126 210.65 909.015 210.658 909.84 210.927L934.619 219.015C935.294 219.235 935.902 219.621 936.388 220.138C936.873 220.655 937.221 221.287 937.398 221.974C937.575 222.661 937.576 223.381 937.401 224.069C937.226 224.756 936.88 225.389 936.396 225.907L927.14 235.833C926.56 236.454 925.806 236.886 924.976 237.072C924.147 237.258 923.28 237.19 922.49 236.875L899.935 227.896C899.416 227.69 898.943 227.382 898.543 226.99C898.144 226.599 897.826 226.132 897.608 225.617C897.391 225.103 897.277 224.549 897.275 223.99C897.273 223.431 897.382 222.877 897.595 222.36V222.36C897.741 222.01 897.932 221.681 898.165 221.381Z" fill="#03DAC5"/>
<path d="M919.627 219.214C919.21 219.214 918.802 219.094 918.451 218.869C918.1 218.644 917.821 218.323 917.647 217.944C917.473 217.565 917.411 217.145 917.468 216.732C917.526 216.319 917.701 215.931 917.972 215.614L923.391 209.287V192.814C923.391 192.236 923.621 191.681 924.03 191.271C924.44 190.862 924.995 190.632 925.573 190.632C926.152 190.632 926.707 190.862 927.116 191.271C927.525 191.681 927.755 192.236 927.755 192.814V210.095C927.756 210.616 927.57 211.119 927.23 211.513L921.284 218.453C921.08 218.692 920.825 218.884 920.539 219.016C920.253 219.147 919.942 219.215 919.627 219.214Z" fill="#03DAC5"/>
<path d="M913.306 244.83L897.615 238.225C898.061 251.606 898.505 264.987 898.949 278.368C898.978 279.236 898.879 280.103 898.656 280.942C897.209 286.405 895.761 291.868 894.313 297.329C898.579 301.165 899.859 303.813 899.238 305.624C898.224 308.583 891.829 310.219 875.131 308.735C872.796 303.564 868.891 297.362 862.431 295.486C859.964 294.769 858.148 294.98 855.441 295.018C848.38 295.067 841.354 294.002 834.624 291.863C832.376 293.526 830.181 295.802 830.031 298.625C829.8 302.964 834.562 305.396 833.919 307.439C833.429 309 829.897 309.964 819.582 309.088C817.987 308.953 816.502 308.218 815.427 307.032C814.351 305.846 813.766 304.296 813.787 302.695C813.903 295.102 814.017 287.509 814.13 279.914V246.768C814.13 224.489 837.14 191.088 837.14 191.088C837.49 190.488 837.84 189.878 838.206 189.288C836.518 188.52 835.006 187.414 833.764 186.038C832.521 184.662 831.574 183.045 830.982 181.288C828.643 174.888 830.791 168.223 835.804 166.388C840.804 164.558 846.752 168.25 849.092 174.648C849.203 174.981 849.315 175.3 849.409 175.634C850.236 174.87 851.08 174.155 851.94 173.47C850.49 171.118 849.734 168.404 849.759 165.64C849.759 158.83 854.072 153.307 859.403 153.307C864.447 153.307 868.603 158.272 869.016 164.607C873.01 163.507 877.161 163.087 881.294 163.366C888.079 163.914 894.605 166.217 900.23 170.05C905.801 169.65 911.354 169.27 916.924 168.872C919.324 173.948 921.555 180.808 918.595 185.852C914.887 192.201 906.118 190.387 900.454 196.435C896.954 200.174 894.374 207.255 897.811 221.835L918.053 232.29L929.558 228.456C929.558 228.456 925.958 224.856 929.065 222.52C929.626 222.115 930.27 221.842 930.95 221.72C932.55 221.435 936.101 223.51 939.763 227.378C941.185 229.336 933.698 236.266 933.107 236.809C930.5 239.213 924.639 243.569 913.306 244.83Z" fill="#003225"/>
<path d="M888.871 177.895C889.378 177.528 888.76 175.808 887.49 174.053C886.221 172.298 884.78 171.173 884.273 171.54C883.765 171.907 884.383 173.627 885.653 175.382C886.923 177.137 888.363 178.262 888.871 177.895Z" fill="#F6FEFC"/>
<path d="M677.435 196.238C673.418 201.649 670.027 206.538 667.262 210.68C662.794 217.372 662.013 219.148 661.732 221.221C660.664 229.113 667.848 236.271 671.778 239.626C673.663 225.162 675.549 210.7 677.435 196.238Z" fill="#A86A54"/>
<path d="M692.084 149.871C687.484 151.171 682.684 149.144 681.412 144.652C680.14 140.16 675.843 134.881 671.949 136.842C668.055 138.803 672.424 147.291 667.438 146.311C662.452 145.331 667.87 133.411 661.688 132.339C655.506 131.267 658.933 144.286 655.302 144.363C651.671 144.44 658.282 127.133 650.976 127.482C643.67 127.831 637.612 149.927 648.695 153.988C659.778 158.049 678.995 157.658 691.855 157.634C692.104 155.008 692.033 152.485 692.084 149.871Z" fill="#C68D76"/>
<path d="M739.645 303.802C737.314 308.869 725.355 307.713 720.783 307.636C720.853 298.561 721.162 289.436 721.283 280.37C715.556 283.509 709.898 285.532 703.267 285.812C697.647 285.931 692.07 284.798 686.942 282.494C685.859 287.294 684.72 292.066 683.597 296.902C686.518 298.359 689.818 301.946 688.135 305.178C686.961 307.432 684.87 307.309 682.635 307.178C678.389 306.93 673.635 306.001 669.293 305.622C669.943 295.066 670.688 284.46 671.342 273.988C660.03 248.077 683.528 179.632 687.542 149.106C687.731 147.669 689.232 140.649 692.877 139.999C694.477 139.714 696.592 139.083 698.407 140.48C701.478 142.844 700.496 145.52 701.776 148.99C703.056 152.46 712.66 150.545 715.627 149.572C714.349 145.379 712.902 136.515 719.261 136.42C725.62 136.325 726.704 145.62 726.772 150.511C726.765 149.916 740.952 151.721 742.296 152.056C747.384 153.344 752.116 155.763 756.14 159.132C757.569 160.174 758.801 161.46 759.78 162.932C762.43 167.445 764.103 172.748 761.547 177.668C760.251 180.242 758.359 182.468 756.028 184.162C753.697 185.856 750.995 186.968 748.147 187.405C743.382 188.176 738.639 187.199 733.99 186.19C730.674 185.472 725.583 183.911 723.017 187.067C720.353 190.345 723.842 195.449 725.654 198.261C728.435 202.506 730.819 206.997 732.778 211.678C737.304 222.632 739.869 234.295 740.356 246.137C740.566 255.309 739.988 264.483 738.627 273.556C738.03 277.446 737.67 281.369 737.549 285.303C737.521 287.571 737.143 289.882 736.96 292.144C736.86 293.373 735.874 297.444 736.51 298.436C737.498 299.965 740.831 301.224 739.645 303.802Z" fill="#A86A54"/>
<path d="M714.251 199.59C714.251 199.59 720.058 195.046 724.671 196.713" stroke="#002E20" stroke-width="5" stroke-miterlimit="10" stroke-linecap="round"/>
<path d="M734.072 157.415C734.564 158.058 736.485 160.364 735.502 161.105C734.519 161.846 732.702 159.505 732.19 158.835C731.678 158.165 729.809 155.858 730.79 155.113C731.771 154.368 733.579 156.768 734.072 157.415Z" fill="#002E20"/>
<path d="M723.057 147.018C727.695 146.672 730.988 143.374 730.463 139.028C729.938 134.682 731.784 128.487 735.88 129.128C739.976 129.769 739.016 138.85 743.163 136.473C747.31 134.096 738.155 124.846 743.541 121.907C748.927 118.968 749.701 132.566 753.295 131.327C756.889 130.088 744.587 116.168 752.079 113.827C759.571 111.486 770.615 131.549 763.085 137.954C755.555 144.359 734.206 150.848 727.543 153.246C720.88 155.644 724.036 152.303 722.105 151.122C721.818 150.955 721.593 150.699 721.465 150.392C721.3 150.083 721.206 149.742 721.189 149.392C721.173 149.042 721.235 148.693 721.371 148.37C721.529 148.03 721.763 147.732 722.056 147.497C722.348 147.263 722.691 147.099 723.057 147.018V147.018Z" fill="#C68D76"/>
<path d="M713.55 239.626C713.55 239.626 727.989 246.117 737.062 241.798" stroke="#002E20" stroke-width="5" stroke-miterlimit="10" stroke-linecap="round"/>
<path d="M700.5 181.684H687.976C685.344 181.684 682.739 182.202 680.308 183.209C677.877 184.217 675.668 185.693 673.807 187.553C671.946 189.414 670.47 191.623 669.464 194.055C668.457 196.486 667.939 199.092 667.939 201.723V241.798C667.939 243.127 668.467 244.401 669.406 245.34C670.345 246.28 671.619 246.808 672.948 246.808H715.529C716.187 246.808 716.838 246.678 717.446 246.427C718.054 246.175 718.606 245.806 719.071 245.341C719.536 244.875 719.905 244.323 720.157 243.715C720.409 243.107 720.538 242.456 720.538 241.798V201.723C720.538 199.092 720.02 196.486 719.013 194.055C718.006 191.623 716.53 189.414 714.669 187.553C712.809 185.693 710.6 184.217 708.168 183.209C705.737 182.202 703.132 181.684 700.5 181.684V181.684Z" fill="#00A878"/>
<path d="M687.976 181.684C685.344 181.684 682.739 182.202 680.308 183.209C677.877 184.217 675.668 185.693 673.807 187.553C671.946 189.414 670.47 191.623 669.464 194.055C668.457 196.486 667.939 199.092 667.939 201.723V241.798C667.939 243.127 668.467 244.401 669.406 245.34C670.345 246.28 671.619 246.808 672.948 246.808H703.004C704.333 246.808 705.607 246.28 706.547 245.341C707.486 244.401 708.014 243.127 708.014 241.798V201.723C708.014 199.092 707.496 196.486 706.489 194.054C705.482 191.623 704.006 189.414 702.146 187.553C700.285 185.692 698.076 184.216 695.645 183.209C693.213 182.202 690.608 181.684 687.976 181.684V181.684Z" fill="#00805B"/>
<path d="M697.995 209.237H670.443C669.115 209.238 667.841 209.765 666.901 210.705C665.962 211.644 665.434 212.918 665.434 214.246V236.788C665.434 238.117 665.962 239.391 666.901 240.331C667.84 241.27 669.114 241.798 670.443 241.798H697.994C699.323 241.798 700.597 241.27 701.537 240.331C702.476 239.391 703.004 238.117 703.004 236.788V214.246C703.004 212.918 702.476 211.644 701.537 210.705C700.597 209.765 699.323 209.238 697.995 209.237V209.237Z" fill="#FBBE18"/>
<path d="M690.481 209.237H670.443C669.115 209.238 667.841 209.765 666.901 210.705C665.962 211.644 665.434 212.918 665.434 214.246V236.788C665.434 238.117 665.962 239.391 666.901 240.331C667.84 241.27 669.114 241.798 670.443 241.798H690.48C691.809 241.798 693.083 241.27 694.023 240.331C694.962 239.391 695.49 238.117 695.49 236.788V214.246C695.49 212.918 694.962 211.644 694.023 210.704C693.084 209.765 691.81 209.237 690.481 209.237V209.237Z" fill="#F68820"/>
<path d="M670.09 216.751H690.835C691 216.751 691.162 216.783 691.314 216.846C691.466 216.909 691.604 217.001 691.721 217.117C691.837 217.234 691.929 217.372 691.992 217.524C692.055 217.676 692.087 217.838 692.087 218.003V218.003C692.087 218.335 691.955 218.653 691.72 218.888C691.486 219.123 691.167 219.255 690.835 219.255H670.09C669.758 219.255 669.44 219.123 669.205 218.888C668.97 218.653 668.838 218.335 668.838 218.003V218.003C668.838 217.838 668.87 217.676 668.933 217.524C668.996 217.372 669.088 217.234 669.205 217.117C669.321 217.001 669.459 216.909 669.611 216.846C669.763 216.783 669.926 216.751 670.09 216.751V216.751Z" fill="#002E20"/>
<path d="M696.116 196.711H679.209C679.039 196.721 678.869 196.695 678.709 196.637C678.549 196.578 678.402 196.488 678.278 196.371C678.154 196.254 678.056 196.113 677.988 195.956C677.921 195.8 677.886 195.631 677.886 195.461C677.886 195.291 677.921 195.122 677.988 194.966C678.056 194.809 678.154 194.668 678.278 194.551C678.402 194.434 678.549 194.343 678.709 194.285C678.869 194.227 679.039 194.201 679.209 194.211H696.116C696.286 194.201 696.456 194.227 696.616 194.285C696.776 194.343 696.923 194.434 697.047 194.551C697.17 194.668 697.269 194.809 697.337 194.966C697.404 195.122 697.439 195.291 697.439 195.461C697.439 195.631 697.404 195.8 697.337 195.956C697.269 196.113 697.17 196.254 697.047 196.371C696.923 196.488 696.776 196.578 696.616 196.637C696.456 196.695 696.286 196.721 696.116 196.711V196.711Z" fill="#F6FEFC"/>
<path d="M713.022 201.723V205.48C713.022 205.812 713.154 206.131 713.389 206.366C713.624 206.601 713.943 206.733 714.275 206.733C714.607 206.733 714.926 206.601 715.161 206.366C715.396 206.131 715.528 205.812 715.528 205.48V201.723C715.528 199.091 715.01 196.486 714.003 194.054C712.996 191.623 711.52 189.414 709.659 187.553C707.798 185.692 705.589 184.216 703.158 183.209C700.726 182.202 698.121 181.684 695.489 181.684H692.989C698.303 181.685 703.399 183.797 707.155 187.555C710.912 191.313 713.023 196.409 713.022 201.723Z" fill="#002E20"/>
<path d="M726.584 199.717C732.566 203.829 742.984 212.417 747.395 226.362C749.156 232.492 749.149 238.995 747.375 245.121C746.826 247.297 745.461 249.178 743.562 250.373C741.663 251.569 739.377 251.987 737.178 251.541C734.978 251.095 733.036 249.819 731.752 247.979C730.469 246.138 729.944 243.874 730.286 241.656C731.935 236.088 731.761 230.14 729.791 224.677C728.144 220.236 725.357 216.306 721.708 213.285" fill="#A86A54"/>
<path d="M692.413 249.648C692.413 249.648 684.765 252.759 679.97 247.703C675.175 242.647 674.657 251.852 681.007 256.388C681.007 256.388 675.435 255.675 676.666 258.461C677.897 261.247 682.823 266.887 688.785 266.433" fill="#A86A54"/>
<path d="M692.413 249.648C692.413 249.648 684.765 252.759 679.97 247.703C675.175 242.647 674.657 251.852 681.007 256.388C681.007 256.388 675.435 255.675 676.666 258.461C677.897 261.247 682.823 266.887 688.785 266.433" stroke="#C68D76" stroke-linejoin="round"/>
<path d="M715.23 177.991H669.595C667.554 177.991 665.899 179.646 665.899 181.687V185.047C665.899 187.088 667.554 188.743 669.595 188.743H715.23C717.271 188.743 718.926 187.088 718.926 185.047V181.687C718.926 179.646 717.271 177.991 715.23 177.991Z" fill="#002E20"/>
<path d="M713.55 188.743C716.519 188.743 718.926 186.336 718.926 183.367C718.926 180.398 716.519 177.991 713.55 177.991C710.581 177.991 708.174 180.398 708.174 183.367C708.174 186.336 710.581 188.743 713.55 188.743Z" fill="#00805B"/>
<path d="M896.595 215.312C898.154 213.974 900.076 213.129 902.116 212.883C903.358 212.943 905.162 214.329 907.616 215.1C908.139 215.266 908.579 215.626 908.846 216.105C909.113 216.585 909.186 217.149 909.05 217.681C908.915 218.213 908.581 218.673 908.117 218.966C907.653 219.26 907.095 219.365 906.556 219.26L899.577 219.568C898.988 220.323 898.4 221.078 897.811 221.834C896.759 220.924 896.096 219.646 895.957 218.262C895.878 217.238 896.1 216.212 896.595 215.312V215.312Z" fill="#003225"/>
<path d="M686.943 282.492L679.567 274.898L685.755 287.666L686.943 282.492Z" fill="#002E20"/>
<path opacity="0.5" d="M491.411 305.547C458.372 300.742 424.662 303.934 393.111 314.855C390.163 321.163 387.214 327.472 384.265 333.781L500.106 319.549L513.326 314.854L569.347 296.424L491.411 305.547Z" fill="#003225"/>
<path d="M1918.98 447.473C1908.94 421.884 1895.44 403.159 1883.3 403.231C1881.52 403.271 1879.76 403.651 1878.12 404.351C1867.61 408.742 1856.84 425.592 1848.61 447.473C1843.89 460.199 1840.29 473.315 1837.87 486.67V486.67C1829.46 443.504 1808.69 403.129 1790.88 403.231C1789.1 403.269 1787.34 403.649 1785.69 404.351C1769.44 411.141 1752.55 447.764 1745.45 486.67C1737.03 443.504 1716.25 403.129 1698.45 403.231C1696.67 403.271 1694.91 403.651 1693.27 404.351C1677 411.141 1660.12 447.764 1653.01 486.67C1644.59 443.504 1623.81 403.129 1606.01 403.231C1604.23 403.271 1602.47 403.651 1600.84 404.351C1586.44 410.364 1571.55 439.785 1563.4 473.462C1562.95 465.073 1562.01 456.717 1560.59 448.438C1552.15 405.272 1531.39 364.898 1513.59 365C1511.8 365.041 1510.04 365.421 1508.4 366.12C1492.14 372.909 1475.26 409.533 1468.15 448.438C1466.76 457.131 1465.87 465.895 1465.48 474.689C1455.88 436.321 1437.29 403.138 1421.15 403.231C1419.37 403.271 1417.61 403.651 1415.98 404.351C1399.7 411.141 1382.82 447.764 1375.71 486.67C1367.31 443.504 1346.53 403.129 1328.73 403.231C1326.94 403.271 1325.18 403.651 1323.54 404.351C1307.28 411.141 1290.4 447.764 1283.29 486.67C1274.87 443.504 1254.1 403.129 1236.29 403.231C1234.51 403.271 1232.75 403.651 1231.11 404.351C1214.84 411.141 1197.96 447.764 1190.85 486.67C1182.45 443.504 1161.67 403.129 1143.87 403.231C1142.08 403.269 1140.32 403.649 1138.68 404.351C1122.42 411.141 1105.53 447.764 1098.43 486.67C1090.01 443.519 1069.23 403.129 1051.43 403.231C1049.65 403.271 1047.89 403.651 1046.25 404.351C1029.98 411.141 1013.1 447.764 1005.99 486.67C997.572 443.504 976.797 403.129 958.992 403.231C957.211 403.271 955.455 403.651 953.817 404.351C937.545 411.155 920.66 447.793 913.571 486.699C905.149 443.533 884.376 403.129 866.57 403.235C864.784 403.275 863.023 403.655 861.38 404.355C845.123 411.145 828.238 447.768 821.134 486.674C812.713 443.508 791.938 403.133 774.132 403.235C772.351 403.275 770.595 403.655 768.957 404.355C754.185 410.518 738.91 441.268 730.904 475.99C730.313 469.937 729.572 464.462 728.696 459.98C720.293 416.814 699.516 376.441 681.709 376.543C679.924 376.581 678.162 376.961 676.52 377.663C660.263 384.452 643.378 421.076 636.274 459.981C635.412 464.687 634.697 470.496 634.141 476.913C624.708 437.616 605.73 403.145 589.272 403.236C587.491 403.276 585.734 403.656 584.097 404.356C567.825 411.146 550.94 447.769 543.836 486.675C535.433 443.509 514.657 403.134 496.849 403.236C495.064 403.274 493.302 403.654 491.66 404.356C475.403 411.146 458.517 447.769 451.414 486.675C442.977 443.509 422.219 403.134 404.412 403.236C402.627 403.277 400.866 403.657 399.223 404.356C383.276 411.016 366.732 446.383 359.401 484.45C359.259 483.676 359.126 482.894 358.977 482.131C350.556 438.966 329.783 398.59 311.975 398.692C310.195 398.732 308.438 399.112 306.801 399.812C290.529 406.601 273.644 443.225 266.541 482.131C266.392 482.945 266.258 483.78 266.117 484.605C257.46 442.224 237.075 403.136 219.553 403.241C217.768 403.281 216.007 403.661 214.364 404.361C198.109 411.151 181.222 447.774 174.118 486.68C165.697 443.514 144.924 403.139 127.118 403.241C125.337 403.281 123.58 403.661 121.942 404.361C105.672 411.151 88.7852 447.774 81.6815 486.68C79.0907 473.303 75.3075 460.185 70.3771 447.483C60.3342 421.894 46.826 403.169 34.6924 403.241C32.9063 403.279 31.144 403.659 29.5014 404.361C18.9903 408.752 8.21616 425.602 0 447.483V556H81.2683C81.4884 555.316 81.6935 554.634 81.8835 553.935C82.0726 554.635 82.2777 555.316 82.4837 556H173.708C173.927 555.316 174.132 554.619 174.322 553.921C174.511 554.621 174.716 555.32 174.922 556H266.131C266.366 555.316 266.571 554.619 266.761 553.906C266.95 554.619 267.154 555.316 267.361 556H358.57C358.789 555.316 358.994 554.634 359.185 553.935C359.374 554.635 359.578 555.316 359.786 556H451.01C451.229 555.316 451.434 554.619 451.624 553.921C451.813 554.621 452.018 555.32 452.224 556H543.42C543.64 555.316 543.844 554.634 544.035 553.935C544.224 554.635 544.43 555.316 544.636 556H635.86C636.079 555.316 636.284 554.619 636.473 553.921C636.663 554.621 636.873 555.32 637.073 556H728.282C728.501 555.316 728.706 554.634 728.896 553.935C729.086 554.635 729.296 555.316 729.496 556H820.72C820.94 555.316 821.144 554.634 821.333 553.935C821.523 554.635 821.728 555.316 821.933 556H913.142C913.377 555.3 913.582 554.601 913.771 553.892C913.961 554.604 914.166 555.302 914.371 556H1005.58C1005.8 555.316 1006 554.634 1006.19 553.935C1006.38 554.635 1006.59 555.316 1006.79 556H1098.02C1098.24 555.316 1098.44 554.619 1098.63 553.921C1098.82 554.621 1099.03 555.32 1099.23 556H1190.44C1190.66 555.316 1190.86 554.634 1191.05 553.935C1191.24 554.635 1191.45 555.316 1191.65 556H1282.88C1283.09 555.316 1283.3 554.619 1283.49 553.921C1283.68 554.621 1283.88 555.32 1284.09 556H1375.3C1375.53 555.316 1375.74 554.619 1375.93 553.906C1376.12 554.619 1376.32 555.316 1376.53 556H1467.74C1467.96 555.316 1468.16 554.634 1468.35 553.935C1468.54 554.635 1468.75 555.316 1468.95 556H1560.17C1560.39 555.316 1560.6 554.619 1560.79 553.921C1560.98 554.621 1561.18 555.32 1561.39 556H1652.6C1652.81 555.316 1653.02 554.634 1653.21 553.935C1653.4 554.635 1653.6 555.316 1653.81 556H1745.03C1745.25 555.316 1745.46 554.619 1745.65 553.921C1745.84 554.621 1746.04 555.32 1746.25 556H1837.46C1837.67 555.316 1837.88 554.634 1838.07 553.935C1838.26 554.635 1838.46 555.316 1838.67 556H1920V450.119C1919.66 449.232 1919.33 448.345 1918.98 447.473Z" fill="#003225"/>
<path d="M197.222 285.772C197.222 285.772 201.237 272.252 209.369 271.75C217.501 271.248 221.503 282.017 221.503 282.017C221.503 282.017 231.603 261.57 246.957 261.237C262.311 260.904 274.003 280.264 274.003 280.264C274.003 280.264 280.679 271.746 289.025 273.502C297.371 275.258 300.375 285.772 300.375 285.772H197.222Z" fill="#003225"/>
<path d="M1345.18 286.517C1337.49 287.25 1320.81 289.211 1312.16 301.298C1310.71 303.327 1306.91 308.638 1307.44 313.407C1310.23 338.432 1431.17 339.236 1490.95 335.579C1508.52 334.504 1544.74 331.579 1560.37 308.05C1562.88 304.28 1564.29 302.099 1563.98 299.16C1560.58 265.979 1355.25 285.557 1345.18 286.517Z" fill="#03DAC5"/>
<path d="M1486.68 335.827C1484.23 329.688 1481 323.887 1477.08 318.563C1475.57 316.502 1473.95 314.52 1472.23 312.623C1474.15 320.867 1476.07 329.111 1477.99 337.356L1486.68 335.827Z" fill="#00A878"/>
<path d="M1478.44 337.774C1476.78 333.617 1474.59 329.689 1471.94 326.084C1470.85 324.603 1469.74 323.266 1468.65 322.061C1469.95 327.645 1471.25 333.228 1472.55 338.81L1478.44 337.774Z" fill="#00A878"/>
<path d="M492.722 365.832L490.908 372.139L486.108 362.592C484.983 366.265 483.86 369.937 482.738 373.609H495.872L492.722 365.832Z" fill="#003225"/>
<path d="M46.4301 318.396L44.6151 324.704L39.8151 315.156C38.6924 318.828 37.5691 322.5 36.4451 326.172H49.5791C48.5304 323.582 47.4807 320.99 46.4301 318.396Z" fill="#003225"/>
<path d="M1444.12 364.019L1442.3 370.327L1437.5 360.779C1436.38 364.451 1435.25 368.123 1434.13 371.795H1447.27C1446.22 369.204 1445.17 366.612 1444.12 364.019Z" fill="#003225"/>
<path d="M618.794 257.343L613.06 246.243C611.937 249.916 610.814 253.589 609.69 257.261L618.794 257.343Z" fill="#003225"/>
<path d="M1015.89 376.511L1010.15 365.411C1009.03 369.084 1007.91 372.756 1006.78 376.428L1015.89 376.511Z" fill="#003225"/>
<path d="M1497.23 261.719L1491.5 250.619C1490.38 254.292 1489.25 257.964 1488.13 261.637L1497.23 261.719Z" fill="#003225"/>
<path d="M515.145 168.029H452.157L512.676 287.243L568.976 269.243C551.033 235.506 533.09 201.768 515.145 168.029Z" fill="#FFE2CC"/>
<path d="M512.677 287.24L568.977 269.24C568.884 278.307 568.791 287.374 568.698 296.44C550.025 302.582 531.351 308.726 512.677 314.87V287.24Z" fill="#FFE2CC"/>
<path d="M482.211 314.873L452.154 267.111L422.103 314.873H482.211Z" fill="#003225"/>
<path d="M452.157 168.029L392.457 287.243V314.875H422.099L452.157 267.111V168.029Z" fill="#C68D76"/>
<path d="M452.157 168.029V267.111L482.211 314.876H512.677V287.243L452.157 168.029Z" fill="#C68D76"/>
<path d="M452.157 267.111L482.211 314.873V273.822L452.157 267.111Z" fill="#A86A54"/>
<path d="M422.103 314.873L452.154 267.111L422.1 272.638L422.103 314.873Z" fill="#A86A54"/>
<path opacity="0.5" d="M339.066 364.982C363.149 364.982 382.672 361.524 382.672 357.258C382.672 352.992 363.149 349.534 339.066 349.534C314.983 349.534 295.46 352.992 295.46 357.258C295.46 361.524 314.983 364.982 339.066 364.982Z" fill="#003225"/>
<path d="M319.564 334.732L310.182 320.655C307.391 316.47 306.247 311.401 306.969 306.423C307.691 301.445 310.229 296.91 314.093 293.69L317.237 291.069L324.223 303.296V295.382C324.981 289.196 327.097 283.253 330.418 277.979C333.738 272.705 338.183 268.23 343.434 264.872L359.382 279.754C362.617 282.774 365.197 286.426 366.961 290.485C368.725 294.544 369.635 298.922 369.635 303.348C369.635 310.131 367.529 316.747 363.609 322.283L354.793 334.732H319.564Z" fill="#FAAD14"/>
<path d="M355.658 313.523C355.658 317.085 354.488 320.548 352.328 323.38L343.671 334.732H328.88L322.122 324.599C320.899 322.759 320.456 320.509 320.89 318.343C321.325 316.176 322.602 314.271 324.441 313.046L325.966 312.028L331.207 317.269V314.922C331.64 310.843 332.959 306.909 335.07 303.392C337.182 299.876 340.036 296.863 343.432 294.564L350.895 302.027C350.895 302.027 355.658 306.878 355.658 313.523Z" fill="#CF4A11"/>
<path d="M318.982 334.733H359.151V355.691H318.982V334.733Z" fill="#A86A54"/>
<path d="M336.447 346.96C336.91 346.96 337.355 347.144 337.682 347.472C338.01 347.799 338.194 348.244 338.194 348.707V348.707C338.194 349.17 338.01 349.615 337.682 349.942C337.355 350.27 336.91 350.454 336.447 350.454V350.454C335.984 350.454 335.539 350.27 335.212 349.942C334.884 349.615 334.7 349.17 334.7 348.707V348.707C334.7 348.244 334.884 347.799 335.212 347.472C335.539 347.144 335.984 346.96 336.447 346.96Z" fill="#995945"/>
<path d="M343.433 346.96H350.419C350.882 346.96 351.326 347.144 351.654 347.472C351.982 347.799 352.166 348.244 352.166 348.707V348.707C352.166 349.17 351.982 349.615 351.654 349.942C351.327 350.27 350.882 350.454 350.419 350.454H343.433C342.97 350.454 342.525 350.27 342.198 349.942C341.87 349.615 341.686 349.17 341.686 348.707V348.707C341.686 348.244 341.87 347.799 342.198 347.472C342.526 347.144 342.97 346.96 343.433 346.96V346.96Z" fill="#995945"/>
<path d="M352.166 334.645C352.165 335.78 352.388 336.904 352.823 337.953C353.257 339.002 353.895 339.955 354.698 340.757L373.909 359.97L374.083 360.145C375.703 361.768 377.901 362.681 380.194 362.683C382.486 362.685 384.686 361.777 386.309 360.157C387.932 358.537 388.845 356.339 388.847 354.046C388.849 351.754 387.941 349.554 386.321 347.931L386.308 347.919L386.134 347.743L366.923 328.532C365.305 326.911 363.11 325.999 360.82 325.997C358.53 325.994 356.332 326.901 354.711 328.519L354.698 328.532C354.577 328.653 354.46 328.779 354.346 328.906C352.938 330.486 352.162 332.53 352.166 334.646V334.645Z" fill="#A86A54"/>
<path d="M371.375 353.856C371.375 354.991 371.598 356.116 372.032 357.165C372.467 358.214 373.104 359.167 373.907 359.969L374.082 360.143C375.702 361.766 377.9 362.679 380.193 362.681C382.485 362.683 384.685 361.775 386.308 360.155C387.931 358.535 388.844 356.337 388.846 354.045C388.848 351.752 387.94 349.552 386.32 347.929L386.307 347.917L386.133 347.741C384.924 346.532 383.383 345.709 381.707 345.376C380.03 345.043 378.292 345.214 376.712 345.868C375.133 346.523 373.783 347.631 372.833 349.052C371.883 350.474 371.376 352.145 371.376 353.855L371.375 353.856Z" fill="#FFE2CC"/>
<path d="M324.222 334.645C324.222 335.78 323.999 336.904 323.564 337.953C323.13 339.002 322.493 339.955 321.69 340.757L302.477 359.969L302.301 360.144C300.677 361.746 298.486 362.641 296.204 362.634C293.923 362.628 291.737 361.719 290.123 360.108C288.508 358.496 287.596 356.312 287.585 354.031C287.574 351.75 288.465 349.557 290.064 347.93L290.076 347.918L290.25 347.742L309.463 328.531C311.081 326.91 313.276 325.998 315.566 325.996C317.856 325.993 320.054 326.9 321.675 328.518L321.688 328.531C321.807 328.652 321.925 328.778 322.039 328.905C323.447 330.485 324.225 332.528 324.222 334.645V334.645Z" fill="#A86A54"/>
<path d="M305.01 353.856C305.01 354.991 304.787 356.116 304.352 357.165C303.918 358.213 303.281 359.166 302.478 359.969L302.302 360.143C301.502 360.957 300.549 361.604 299.498 362.048C298.447 362.492 297.319 362.723 296.178 362.729C295.037 362.734 293.906 362.514 292.851 362.08C291.795 361.647 290.836 361.009 290.029 360.203C289.221 359.397 288.581 358.439 288.146 357.384C287.71 356.33 287.488 355.199 287.491 354.058C287.494 352.917 287.724 351.788 288.165 350.736C288.607 349.685 289.253 348.73 290.065 347.929L290.077 347.917L290.251 347.741C291.46 346.532 293.001 345.709 294.678 345.375C296.355 345.042 298.093 345.213 299.673 345.868C301.253 346.522 302.603 347.63 303.553 349.052C304.503 350.474 305.01 352.145 305.01 353.855V353.856Z" fill="#FFE2CC"/>
<path d="M338.194 334.645C338.194 335.78 337.971 336.904 337.536 337.953C337.102 339.002 336.465 339.955 335.662 340.757L316.449 359.969L316.275 360.144C314.651 361.746 312.46 362.641 310.179 362.634C307.897 362.628 305.711 361.72 304.097 360.108C302.482 358.497 301.57 356.312 301.559 354.031C301.548 351.75 302.439 349.557 304.038 347.93L304.05 347.918L304.224 347.742L323.435 328.531C325.053 326.91 327.249 325.998 329.539 325.995C331.83 325.993 334.028 326.9 335.649 328.518L335.662 328.531C335.781 328.652 335.899 328.778 336.013 328.905C337.421 330.485 338.197 332.529 338.194 334.645V334.645Z" fill="#C68D76"/>
<path d="M318.983 353.856C318.983 354.992 318.759 356.116 318.324 357.165C317.89 358.214 317.252 359.167 316.449 359.969L316.275 360.143C315.475 360.957 314.522 361.604 313.471 362.048C312.42 362.492 311.292 362.723 310.151 362.729C309.01 362.734 307.879 362.514 306.824 362.08C305.768 361.647 304.809 361.009 304.002 360.203C303.194 359.397 302.554 358.439 302.119 357.384C301.683 356.33 301.461 355.199 301.464 354.058C301.467 352.917 301.697 351.788 302.138 350.736C302.58 349.685 303.226 348.73 304.038 347.929L304.05 347.917L304.224 347.741C305.433 346.533 306.974 345.71 308.651 345.377C310.328 345.044 312.066 345.215 313.645 345.869C315.225 346.524 316.575 347.632 317.525 349.053C318.475 350.474 318.982 352.146 318.983 353.855V353.856Z" fill="#FFE2CC"/>
<path d="M374.869 354.031C374.869 355.741 374.362 357.412 373.412 358.834C372.462 360.256 371.112 361.364 369.532 362.018C367.953 362.672 366.214 362.844 364.537 362.51C362.86 362.176 361.32 361.353 360.111 360.144L359.936 359.969L340.725 340.756C339.922 339.953 339.286 339.001 338.851 337.952C338.417 336.903 338.193 335.779 338.193 334.644C338.193 333.509 338.417 332.385 338.851 331.336C339.286 330.287 339.922 329.335 340.725 328.532V328.532C342.127 327.126 343.972 326.247 345.947 326.043C346.239 326.015 346.536 325.999 346.837 325.999C349.13 325.999 351.329 326.91 352.95 328.531L372.161 347.742L372.335 347.918C373.138 348.721 373.776 349.673 374.21 350.722C374.645 351.771 374.869 352.896 374.869 354.031V354.031Z" fill="#C68D76"/>
<path d="M374.869 354.031C374.87 355.741 374.363 357.413 373.413 358.835C372.463 360.257 371.113 361.365 369.534 362.019C367.954 362.674 366.216 362.845 364.539 362.512C362.861 362.178 361.321 361.354 360.112 360.145L359.937 359.97C359.133 359.168 358.496 358.216 358.06 357.167C357.625 356.119 357.4 354.995 357.399 353.86C357.398 352.724 357.62 351.6 358.054 350.551C358.487 349.501 359.123 348.548 359.925 347.744C360.727 346.941 361.679 346.303 362.728 345.867C363.776 345.432 364.9 345.207 366.036 345.206C367.171 345.205 368.295 345.427 369.345 345.861C370.394 346.294 371.347 346.93 372.151 347.732L372.163 347.744L372.337 347.92C373.14 348.722 373.777 349.675 374.211 350.724C374.645 351.772 374.869 352.896 374.869 354.031V354.031Z" fill="#FFE2CC"/>
<path d="M310.247 359.003C308.906 359.003 307.62 358.47 306.672 357.522C305.724 356.574 305.191 355.288 305.191 353.947C305.191 352.606 305.724 351.32 306.672 350.372C307.62 349.424 308.906 348.891 310.247 348.891C310.584 348.891 310.908 349.025 311.146 349.263C311.385 349.502 311.518 349.825 311.518 350.163C311.518 350.5 311.385 350.823 311.146 351.062C310.908 351.3 310.584 351.434 310.247 351.434C309.75 351.434 309.263 351.581 308.85 351.857C308.436 352.134 308.114 352.526 307.924 352.986C307.733 353.445 307.683 353.951 307.78 354.438C307.877 354.926 308.117 355.374 308.468 355.726C308.82 356.077 309.268 356.317 309.756 356.414C310.243 356.511 310.749 356.461 311.208 356.271C311.668 356.08 312.061 355.758 312.337 355.344C312.613 354.931 312.76 354.444 312.76 353.947C312.76 353.61 312.894 353.287 313.132 353.048C313.371 352.81 313.694 352.676 314.031 352.676C314.368 352.676 314.691 352.81 314.93 353.048C315.168 353.287 315.302 353.61 315.302 353.947C315.301 355.288 314.768 356.573 313.82 357.521C312.872 358.469 311.587 359.002 310.246 359.003H310.247Z" fill="#C68D76"/>
<path d="M296.277 359.003C294.936 359.003 293.65 358.47 292.702 357.522C291.754 356.574 291.221 355.288 291.221 353.947C291.221 352.606 291.754 351.32 292.702 350.372C293.65 349.424 294.936 348.891 296.277 348.891C296.614 348.891 296.938 349.025 297.176 349.263C297.414 349.502 297.548 349.825 297.548 350.163C297.548 350.5 297.414 350.823 297.176 351.062C296.938 351.3 296.614 351.434 296.277 351.434C295.78 351.434 295.293 351.581 294.88 351.857C294.466 352.134 294.144 352.526 293.953 352.986C293.763 353.445 293.713 353.951 293.81 354.438C293.907 354.926 294.147 355.374 294.498 355.726C294.85 356.077 295.298 356.317 295.786 356.414C296.273 356.511 296.779 356.461 297.238 356.271C297.698 356.08 298.091 355.758 298.367 355.344C298.643 354.931 298.79 354.444 298.79 353.947C298.79 353.61 298.924 353.287 299.162 353.048C299.401 352.81 299.724 352.676 300.061 352.676C300.398 352.676 300.721 352.81 300.96 353.048C301.198 353.287 301.332 353.61 301.332 353.947C301.331 355.288 300.798 356.573 299.85 357.521C298.902 358.469 297.616 359.002 296.276 359.003H296.277Z" fill="#A86A54"/>
<path d="M380.236 359.003C379.572 359.003 378.915 358.872 378.301 358.618C377.688 358.364 377.13 357.992 376.661 357.522C376.191 357.053 375.819 356.495 375.565 355.882C375.311 355.269 375.18 354.611 375.18 353.947C375.18 353.283 375.311 352.626 375.565 352.012C375.819 351.399 376.191 350.841 376.661 350.372C377.13 349.902 377.688 349.53 378.301 349.276C378.915 349.022 379.572 348.891 380.236 348.891C380.573 348.891 380.897 349.025 381.135 349.263C381.373 349.502 381.507 349.825 381.507 350.163C381.507 350.5 381.373 350.823 381.135 351.062C380.897 351.3 380.573 351.434 380.236 351.434C379.739 351.434 379.252 351.581 378.839 351.857C378.425 352.134 378.103 352.526 377.912 352.986C377.722 353.445 377.672 353.951 377.769 354.438C377.866 354.926 378.106 355.374 378.457 355.726C378.809 356.077 379.257 356.317 379.745 356.414C380.233 356.511 380.738 356.461 381.197 356.271C381.657 356.08 382.05 355.758 382.326 355.344C382.602 354.931 382.749 354.444 382.749 353.947C382.749 353.61 382.883 353.287 383.121 353.048C383.36 352.81 383.683 352.676 384.02 352.676C384.357 352.676 384.68 352.81 384.919 353.048C385.157 353.287 385.291 353.61 385.291 353.947C385.29 355.288 384.756 356.573 383.809 357.521C382.861 358.469 381.575 359.002 380.235 359.003H380.236Z" fill="#A86A54"/>
<path d="M366.267 359.003C364.926 359.003 363.64 358.47 362.692 357.522C361.744 356.574 361.211 355.288 361.211 353.947C361.211 352.606 361.744 351.32 362.692 350.372C363.64 349.424 364.926 348.891 366.267 348.891C366.604 348.891 366.928 349.025 367.166 349.263C367.404 349.502 367.538 349.825 367.538 350.163C367.538 350.5 367.404 350.823 367.166 351.062C366.928 351.3 366.604 351.434 366.267 351.434C365.77 351.434 365.284 351.582 364.87 351.858C364.457 352.134 364.134 352.527 363.944 352.986C363.754 353.446 363.704 353.951 363.801 354.439C363.898 354.927 364.138 355.375 364.49 355.726C364.841 356.078 365.289 356.317 365.777 356.414C366.265 356.511 366.77 356.461 367.23 356.27C367.689 356.08 368.082 355.758 368.358 355.344C368.634 354.93 368.781 354.444 368.781 353.947C368.781 353.61 368.915 353.287 369.153 353.048C369.392 352.81 369.715 352.676 370.052 352.676C370.389 352.676 370.712 352.81 370.951 353.048C371.189 353.287 371.323 353.61 371.323 353.947C371.322 355.288 370.789 356.573 369.841 357.521C368.893 358.469 367.607 359.002 366.267 359.003V359.003Z" fill="#C68D76"/>
<path opacity="0.5" d="M627.114 372.234H529.723C520.261 372.234 512.59 376.384 512.59 381.505C512.59 386.626 520.261 390.776 529.723 390.776H627.11C636.572 390.776 644.243 386.625 644.243 381.505C644.243 376.385 636.575 372.234 627.114 372.234Z" fill="#003225"/>
<path d="M535.787 383.949C531.266 383.915 526.941 382.094 523.756 378.885C520.571 375.675 518.784 371.337 518.784 366.816C518.784 362.294 520.571 357.956 523.756 354.746C526.941 351.537 531.266 349.717 535.787 349.682H633.174V383.949H535.787Z" fill="#C68D76"/>
<path d="M603.159 377.501C602.43 377.487 601.735 377.188 601.224 376.667C600.713 376.146 600.427 375.446 600.427 374.717C600.427 373.987 600.713 373.287 601.224 372.766C601.735 372.245 602.43 371.946 603.159 371.932C611.844 371.932 616.705 367.732 616.752 367.691C617.3 367.201 618.019 366.948 618.752 366.986C619.486 367.024 620.174 367.35 620.669 367.894C621.163 368.437 621.422 369.154 621.39 369.888C621.359 370.622 621.038 371.313 620.499 371.812C620.243 372.045 614.115 377.502 603.16 377.502L603.159 377.501Z" fill="#A86A54"/>
<path d="M633.173 383.949C642.636 383.949 650.307 376.278 650.307 366.815C650.307 357.352 642.636 349.681 633.173 349.681C623.71 349.681 616.039 357.352 616.039 366.815C616.039 376.278 623.71 383.949 633.173 383.949Z" fill="#EBBBA5"/>
<path d="M633.173 377.889C630.236 377.889 627.419 376.723 625.343 374.646C623.266 372.569 622.099 369.752 622.099 366.815C622.099 363.878 623.266 361.062 625.343 358.985C627.419 356.908 630.236 355.741 633.173 355.741C633.903 355.755 634.597 356.055 635.108 356.575C635.619 357.096 635.905 357.796 635.905 358.526C635.905 359.255 635.619 359.956 635.108 360.476C634.597 360.997 633.903 361.296 633.173 361.31C632.084 361.31 631.02 361.633 630.115 362.238C629.21 362.843 628.504 363.703 628.088 364.709C627.671 365.715 627.562 366.822 627.775 367.89C627.988 368.958 628.512 369.938 629.282 370.708C630.052 371.478 631.033 372.002 632.101 372.215C633.168 372.427 634.275 372.318 635.281 371.901C636.287 371.484 637.147 370.779 637.751 369.874C638.356 368.968 638.679 367.904 638.679 366.815C638.679 366.077 638.972 365.369 639.495 364.847C640.017 364.325 640.725 364.031 641.463 364.031C642.201 364.031 642.91 364.325 643.432 364.847C643.954 365.369 644.247 366.077 644.247 366.815C644.244 369.751 643.076 372.566 641 374.642C638.924 376.718 636.109 377.886 633.173 377.889V377.889Z" fill="#C68D76"/>
<path d="M583.07 367.492C582.833 367.592 579.306 369.059 572.115 369.059C565.536 368.959 558.998 368.015 552.66 366.249C532.06 360.837 521.821 362.867 518.937 363.717C519.336 361.514 520.17 359.411 521.388 357.532C527.174 356.697 537.641 356.549 554.078 360.866C572.399 365.678 580.789 362.414 580.866 362.38C581.204 362.222 581.57 362.134 581.943 362.12C582.315 362.106 582.687 362.167 583.035 362.3C583.384 362.432 583.702 362.634 583.971 362.892C584.241 363.149 584.455 363.459 584.603 363.801C584.75 364.144 584.827 364.513 584.83 364.885C584.832 365.258 584.759 365.628 584.616 365.972C584.472 366.316 584.261 366.628 583.995 366.889C583.729 367.151 583.413 367.356 583.066 367.492H583.07Z" fill="#A86A54"/>
<path d="M605.523 364.215H605.507C604.767 364.211 604.059 363.914 603.538 363.389C603.016 362.865 602.723 362.155 602.723 361.415C602.724 360.681 603.016 359.977 603.535 359.459C604.054 358.94 604.757 358.648 605.491 358.647H605.539C606.269 358.663 606.963 358.964 607.472 359.486C607.982 360.008 608.266 360.71 608.264 361.439C608.262 362.169 607.974 362.869 607.461 363.388C606.948 363.907 606.253 364.204 605.523 364.216V364.215Z" fill="#A86A54"/>
<path d="M1877.25 253.577C1881.85 253.577 1885.58 252.314 1885.58 250.756C1885.58 249.198 1881.85 247.935 1877.25 247.935C1872.65 247.935 1868.92 249.198 1868.92 250.756C1868.92 252.314 1872.65 253.577 1877.25 253.577Z" fill="#FAAD14"/>
<path d="M1822.54 339.168C1806.22 340.768 1791.83 360.33 1789.59 363.129C1789.59 363.129 1788.38 350.162 1778.68 348.157C1768.98 346.152 1755.64 366.362 1755.64 366.362C1790.4 366.397 1825.16 366.432 1859.92 366.468C1851.55 349.063 1836.23 337.827 1822.54 339.168Z" fill="#003225"/>
<path d="M977.997 106.831V115.729" stroke="#002E20" stroke-width="2.821" stroke-linecap="round" stroke-linejoin="round"/>
<path d="M991.596 102.272L997.849 123.933" stroke="#002E20" stroke-width="2.821" stroke-linecap="round" stroke-linejoin="round"/>
<path d="M993.64 109.354L986.78 106.016" stroke="#002E20" stroke-width="2.821" stroke-linecap="round" stroke-linejoin="round"/>
<path d="M982.179 110.824H973.815C972.019 110.824 970.563 112.28 970.563 114.076V117.587C970.563 119.383 972.019 120.839 973.815 120.839H982.179C983.975 120.839 985.431 119.383 985.431 117.587V114.076C985.431 112.28 983.975 110.824 982.179 110.824Z" fill="#03DAC5"/>
<path d="M977.998 119.337C979.991 119.337 981.606 117.722 981.606 115.729C981.606 113.736 979.991 112.121 977.998 112.121C976.005 112.121 974.39 113.736 974.39 115.729C974.39 117.722 976.005 119.337 977.998 119.337Z" fill="#002E20"/>
<path d="M977.997 116.629C978.495 116.629 978.898 116.226 978.898 115.728C978.898 115.231 978.495 114.827 977.997 114.827C977.499 114.827 977.096 115.231 977.096 115.728C977.096 116.226 977.499 116.629 977.997 116.629Z" fill="#F3FBF9"/>
<path d="M946.385 98.6392H1011.31" stroke="#002E20" stroke-width="2.821" stroke-linecap="round" stroke-linejoin="round"/>
<path d="M948.209 95.5063H944.51C942.794 95.5063 941.403 96.8974 941.403 98.6133V98.6143C941.403 100.33 942.794 101.721 944.51 101.721H948.209C949.925 101.721 951.316 100.33 951.316 98.6143V98.6133C951.316 96.8974 949.925 95.5063 948.209 95.5063Z" fill="#03DAC5"/>
<path d="M936.468 91.6862C940.742 91.6862 944.206 91.4418 944.206 91.1402C944.206 90.8387 940.742 90.5942 936.468 90.5942C932.194 90.5942 928.73 90.8387 928.73 91.1402C928.73 91.4418 932.194 91.6862 936.468 91.6862Z" fill="#FAAD14"/>
<path d="M955.883 91.6862C960.157 91.6862 963.621 91.4418 963.621 91.1402C963.621 90.8387 960.157 90.5942 955.883 90.5942C951.609 90.5942 948.145 90.8387 948.145 91.1402C948.145 91.4418 951.609 91.6862 955.883 91.6862Z" fill="#FAAD14"/>
<path d="M944.808 92.1421H947.653C947.902 92.1421 948.141 92.2411 948.318 92.4174C948.494 92.5937 948.593 92.8328 948.593 93.0821V95.5061H943.868V93.0821C943.868 92.8328 943.967 92.5937 944.143 92.4174C944.32 92.2411 944.559 92.1421 944.808 92.1421V92.1421Z" fill="#B6EDE1"/>
<path d="M1013.34 95.5063H1009.64C1007.92 95.5063 1006.53 96.8974 1006.53 98.6133V98.6143C1006.53 100.33 1007.92 101.721 1009.64 101.721H1013.34C1015.05 101.721 1016.44 100.33 1016.44 98.6143V98.6133C1016.44 96.8974 1015.05 95.5063 1013.34 95.5063Z" fill="#03DAC5"/>
<path d="M1001.6 91.6862C1005.87 91.6862 1009.33 91.4418 1009.33 91.1402C1009.33 90.8387 1005.87 90.5942 1001.6 90.5942C997.323 90.5942 993.859 90.8387 993.859 91.1402C993.859 91.4418 997.323 91.6862 1001.6 91.6862Z" fill="#FAAD14"/>
<path d="M1021.01 91.6862C1025.29 91.6862 1028.75 91.4418 1028.75 91.1402C1028.75 90.8387 1025.29 90.5942 1021.01 90.5942C1016.74 90.5942 1013.27 90.8387 1013.27 91.1402C1013.27 91.4418 1016.74 91.6862 1021.01 91.6862Z" fill="#FAAD14"/>
<path d="M1009.94 92.1421H1012.78C1013.03 92.1421 1013.27 92.2411 1013.45 92.4174C1013.62 92.5937 1013.72 92.8328 1013.72 93.0821V95.5061H1009V93.0821C1009 92.8328 1009.1 92.5937 1009.27 92.4174C1009.45 92.2411 1009.69 92.1421 1009.94 92.1421V92.1421Z" fill="#B6EDE1"/>
<path d="M966.903 102.829L960.457 101.729V98.6392H966.903V102.829Z" fill="white" stroke="#002E20" stroke-width="2.821" stroke-linecap="round" stroke-linejoin="round"/>
<path d="M989.094 102.829L995.54 101.729V98.6392H989.094V102.829Z" fill="white" stroke="#002E20" stroke-width="2.821" stroke-linecap="round" stroke-linejoin="round"/>
<path d="M963.681 102.272L957.428 123.933" stroke="#002E20" stroke-width="2.821" stroke-linecap="round" stroke-linejoin="round"/>
<path d="M961.637 109.354L968.497 106.016" stroke="#002E20" stroke-width="2.821" stroke-linecap="round" stroke-linejoin="round"/>
<path d="M984.241 91.8872H971.756C969.076 91.8872 966.903 94.06 966.903 96.7402V101.981C966.903 104.661 969.076 106.834 971.756 106.834H984.241C986.921 106.834 989.094 104.661 989.094 101.981V96.7402C989.094 94.06 986.921 91.8872 984.241 91.8872Z" fill="#03DAC5"/>
<path d="M982.987 89.7021H973.818C973.216 89.7021 972.727 90.1906 972.727 90.7931V90.7941C972.727 91.3967 973.216 91.8851 973.818 91.8851H982.987C983.59 91.8851 984.078 91.3967 984.078 90.7941V90.7931C984.078 90.1906 983.59 89.7021 982.987 89.7021Z" fill="#B6EDE1"/>
<path d="M947.399 90.1641H945.037C944.491 90.1641 944.048 90.6066 944.048 91.1526C944.048 91.6985 944.491 92.1411 945.037 92.1411H947.399C947.945 92.1411 948.388 91.6985 948.388 91.1526C948.388 90.6066 947.945 90.1641 947.399 90.1641Z" fill="#002E20"/>
<path d="M1012.53 90.1641H1010.17C1009.62 90.1641 1009.18 90.6066 1009.18 91.1526C1009.18 91.6985 1009.62 92.1411 1010.17 92.1411H1012.53C1013.07 92.1411 1013.52 91.6985 1013.52 91.1526C1013.52 90.6066 1013.07 90.1641 1012.53 90.1641Z" fill="#002E20"/>
</g>
<defs>
<clipPath id="clip0">
<rect width="1919.79" height="555.774" fill="white"/>
</clipPath>
</defs>
</svg>
