<?xml version="1.0" encoding="UTF-8" standalone="no"?>
<svg xmlns="http://www.w3.org/2000/svg" xmlns:xlink="http://www.w3.org/1999/xlink" width="187px" height="53px" viewBox="0 0 187 53" version="1.1"><!-- Generator: Sketch 42 (36781) - http://www.bohemiancoding.com/sketch --><title>PhreesiaLogo_Desktop</title><desc>Created with Sketch.</desc><defs><polygon id="path-1" points="25.9776933 52.1451613 0.0221301775 52.1451613 0.0221301775 0.0743345916 25.9776933 0.0743345916 51.9332564 0.0743345916 51.9332564 52.1451613 25.9776933 52.1451613"/></defs><g id="Symbols" stroke="none" stroke-width="1" fill="none" fill-rule="evenodd"><g id="Header_Desktop" transform="translate(-139.000000, -55.000000)"><g id="PhreesiaLogo_Desktop" transform="translate(139.000000, 55.000000)"><g id="Group-3"><mask id="mask-2" fill="white"><use xlink:href="#path-1"/></mask><g id="Clip-2"/><path d="M51.9332564,26.109563 C51.9332564,40.4879441 40.30643,52.1451613 25.9634931,52.1451613 C11.6264576,52.1451613 0,40.4879441 0,26.109563 C0,11.7308122 11.6264576,0.0743345916 25.9634931,0.0743345916 C40.30643,0.0743345916 51.9332564,11.7308122 51.9332564,26.109563" id="Fill-1" fill="#E25F37" mask="url(#mask-2)"/></g><path d="M69.7635404,25.8869291 L73.4493215,25.8869291 C74.8966351,25.8869291 76.8710158,25.8869291 78.3209112,24.831082 C79.7682249,23.7763444 80.2938166,21.7959378 80.2938166,20.0806948 C80.2938166,18.3647122 79.7682249,16.3843055 78.3209112,15.3288283 C76.8710158,14.2726114 74.8966351,14.2726114 73.4493215,14.2726114 L69.7635404,14.2726114 L69.7635404,25.8869291 Z M72.7909487,12.6886559 C74.7656982,12.6886559 77.6618008,12.6886559 79.6358126,14.008927 C81.610931,15.3288283 82.4009783,17.5721797 82.4009783,19.9482979 C82.4009783,22.8521547 81.2151696,24.9638488 79.3728323,26.1520928 C77.5290197,27.3403368 75.4225957,27.4719941 72.7909487,27.4719941 L69.7635404,27.4719941 L69.7635404,37.5034657 L67.7887909,37.5034657 L67.7887909,12.6886559 L72.7909487,12.6886559 L72.7909487,12.6886559 Z" id="Fill-4" fill="#38606D"/><path d="M88.9817554,11.764836 L88.9817554,22.8521547 C89.3760414,20.7404605 90.9565049,19.4201894 94.0820237,19.4201894 C96.8464517,19.4201894 98.294503,20.443492 99.1170079,21.6642805 C100.170773,23.214582 100.170773,25.1613347 100.170773,27.0759127 L100.170773,37.5034657 L98.195286,37.5034657 L98.195286,27.0759127 C98.195286,25.3270158 98.195286,24.0400288 97.4063452,22.8521547 C96.7811677,21.9287045 95.6949448,21.136172 93.6545424,21.136172 C89.3760414,21.136172 88.9817554,24.5681373 88.9817554,26.4157772 L88.9817554,37.5034657 L87.0070059,37.5034657 L87.0070059,11.764836 L88.9817554,11.764836" id="Fill-5" fill="#38606D"/><path d="M114.121637,21.5315137 C114.121637,21.5315137 113.431544,21.4002263 112.574738,21.4002263 C108.330538,21.4002263 108.199602,24.765993 108.199602,26.6790917 L108.199602,37.5034657 L106.224114,37.5034657 L106.224114,19.8159009 L107.672903,19.8159009 L108.067558,23.1165787 C108.725931,20.3443792 110.963292,19.6842437 113.46474,19.6842437 L114.121637,19.6842437 L114.121637,21.5315137" id="Fill-6" fill="#38606D"/><path d="M127.81284,27.4057956 C127.81284,23.2815201 126.36442,21.0048846 123.370945,21.0048846 C120.243582,21.0048846 118.597834,23.4460917 118.334485,27.4057956 L127.81284,27.4057956 Z M128.996067,36.9742478 C128.996067,36.9742478 127.055619,37.7664104 124.291191,37.7664104 C121.461479,37.7664104 119.552383,36.9417033 118.334485,35.5885178 C116.952824,34.0715005 116.228061,31.6291838 116.228061,28.6587588 C116.228061,22.7855864 118.992489,19.4201894 123.469055,19.4201894 C125.969765,19.4201894 127.81284,20.4767761 128.866237,22.4553337 C129.918895,24.4357403 129.918895,27.0759127 129.918895,28.9231828 L118.334485,28.9231828 C118.334485,33.6081112 120.309972,36.1824549 124.324387,36.1824549 C126.693053,36.1824549 128.7353,35.2590048 128.7353,35.2590048 L128.996067,35.2590048 L128.996067,36.9742478 L128.996067,36.9742478 Z" id="Fill-7" fill="#38606D"/><path d="M145.449854,27.4057956 C145.449854,23.2815201 144.00254,21.0048846 141.00759,21.0048846 C137.882809,21.0048846 136.23743,23.4460917 135.972974,27.4057956 L145.449854,27.4057956 Z M146.635663,36.9742478 C146.635663,36.9742478 144.694477,37.7664104 141.930049,37.7664104 C139.100337,37.7664104 137.191241,36.9417033 135.972974,35.5885178 C134.590945,34.0715005 133.86655,31.6291838 133.86655,28.6587588 C133.86655,22.7855864 136.631716,19.4201894 141.107176,19.4201894 C143.609361,19.4201894 145.449854,20.4767761 146.50325,22.4553337 C147.557385,24.4357403 147.557385,27.0759127 147.557385,28.9231828 L135.972974,28.9231828 C135.972974,33.6081112 137.947724,36.1824549 141.963245,36.1824549 C144.331542,36.1824549 146.372314,35.2590048 146.372314,35.2590048 L146.635663,35.2590048 L146.635663,36.9742478 L146.635663,36.9742478 Z" id="Fill-8" fill="#38606D"/><path d="M161.376943,21.9287045 L161.115807,21.9287045 C161.115807,21.9287045 159.271256,21.136172 157.297613,21.136172 C155.058777,21.136172 153.743507,22.1920191 153.743507,23.8418032 C153.743507,28.0322772 162.03716,26.9760603 162.03716,32.8836263 C162.03716,36.3148519 159.20671,37.7664104 155.949148,37.7664104 C153.347746,37.7664104 151.637452,36.8425905 151.637452,36.8425905 L151.637452,35.1266079 L151.899694,35.1266079 C151.899694,35.1266079 154.007225,36.1824549 156.244586,36.1824549 C158.614728,36.1824549 160.063148,34.9945808 160.063148,33.0811122 C160.063148,28.5274713 151.769495,29.649147 151.769495,24.1713163 C151.769495,21.4002263 153.875181,19.5514769 157.496047,19.5514769 C159.667018,19.5514769 161.376943,20.2119823 161.376943,20.2119823 L161.376943,21.9287045" id="Fill-9" fill="#38606D"/><path d="M167.169886,37.5034657 L169.143897,37.5034657 L169.143897,19.8159009 L167.169886,19.8159009 L167.169886,37.5034657 Z M167.037473,15.5928825 L169.275572,15.5928825 L169.275572,13.0843674 L167.037473,13.0843674 L167.037473,15.5928825 Z" id="Fill-10" fill="#38606D"/><path d="M179.87187,36.3148519 C181.58327,36.3148519 183.162258,35.5885178 184.018327,33.9376242 C184.807637,32.3884322 184.807637,30.5737066 184.807637,29.4512912 L184.807637,29.0559496 C181.188615,29.0559496 179.312714,29.0559496 177.832574,29.9124616 C176.581112,30.6387956 176.120805,31.7604713 176.120805,32.9161708 C176.120805,34.9945808 177.568856,36.3148519 179.87187,36.3148519 Z M175.462432,20.3443792 C175.462432,20.3443792 177.568856,19.5514769 180.398568,19.5514769 C182.701951,19.5514769 184.677438,20.0806948 185.729728,21.5315137 C186.783124,22.9834421 186.783124,24.9638488 186.783124,27.20757 L186.783124,37.5034657 L185.334335,37.5034657 L184.807637,34.334815 C184.413351,36.0507976 182.966037,37.8980677 179.641716,37.8980677 C176.318132,37.8980677 174.015118,36.0507976 174.015118,32.9487153 C174.015118,31.0356166 174.869712,29.3192641 177.041789,28.395814 C179.08256,27.5378227 181.58327,27.5378227 184.807637,27.5378227 C184.807637,25.4257588 184.807637,23.9738304 184.150371,22.8521547 C183.493105,21.7293695 182.208079,21.136172 180.200503,21.136172 C177.699793,21.136172 175.725043,22.0596222 175.725043,22.0596222 L175.462432,22.0596222 L175.462432,20.3443792 L175.462432,20.3443792 Z" id="Fill-11" fill="#38606D"/></g></g></g></svg>