<svg width="960" height="349" viewBox="0 0 960 349" fill="none" xmlns="http://www.w3.org/2000/svg">
<path fill-rule="evenodd" clip-rule="evenodd" d="M197.667 135.141C191.255 128.696 178.398 120.556 178.398 120.556C178.398 120.556 175.839 105.573 174.111 100.024C185.674 88.8611 187.4 87.1664 198.531 76.4691C199.395 97.8651 198.963 108.994 197.667 135.141Z" fill="#000222"/>
<path fill-rule="evenodd" clip-rule="evenodd" d="M206.671 180.092C198.963 182.219 198.099 182.651 190.391 184.81C182.252 180.092 174.976 177.534 168.132 178.364C168.996 174.112 170.257 171.088 171.553 167.235C186.105 165.108 196.803 172.816 206.671 180.092Z" fill="#000222"/>
<path fill-rule="evenodd" clip-rule="evenodd" d="M324.845 174.112C324.845 214.08 308.965 252.419 280.725 280.692C272.619 288.799 263.715 295.875 254.147 301.855C254.147 301.855 254.113 301.888 254.08 301.888L202.384 237.47L245.209 242.187C245.209 242.187 265.775 244.314 270.459 242.187C274.745 240.492 297.868 207.934 297.868 207.934C297.868 207.934 231.488 165.972 208.796 142.85C211.388 103.878 205.807 52.0495 205.807 52.4815C189.095 69.1602 186.969 71.7508 170.257 87.1668C162.981 63.6122 159.56 55.4722 152.284 31.9162C130.423 49.8908 113.745 80.3229 101.751 115.872C99.1268 118.762 96.6014 121.819 94.1108 125.075C92.4828 127.234 90.8534 129.427 89.2921 131.686C86.0694 136.271 82.9801 141.088 80.0241 146.138C77.9308 149.694 75.8708 153.348 73.8774 157.068C59.9561 183.215 48.5281 213.183 38.6268 240.16C38.5601 240.06 38.4948 239.927 38.4614 239.828C28.6268 219.528 23.3774 197.103 23.3774 174.112C23.3774 134.111 39.2588 95.7722 67.5321 67.4989C95.8041 39.2255 134.144 23.3455 174.112 23.3455C214.112 23.3455 252.452 39.2255 280.725 67.4989C308.965 95.7722 324.845 134.111 324.845 174.112Z" fill="#000222"/>
<path fill-rule="evenodd" clip-rule="evenodd" d="M197.667 135.141C191.255 128.696 178.398 120.556 178.398 120.556C178.398 120.556 175.839 105.573 174.111 100.024C185.674 88.8611 187.4 87.1664 198.531 76.4691C199.395 97.8651 198.963 108.994 197.667 135.141Z" fill="#DD1100"/>
<path fill-rule="evenodd" clip-rule="evenodd" d="M206.671 180.092C198.963 182.219 198.099 182.651 190.391 184.81C182.252 180.092 174.976 177.534 168.132 178.364C168.996 174.112 170.257 171.088 171.553 167.235C186.105 165.108 196.803 172.816 206.671 180.092Z" fill="#DD1100"/>
<path fill-rule="evenodd" clip-rule="evenodd" d="M324.845 174.112C324.845 214.08 308.965 252.419 280.725 280.692C272.619 288.799 263.715 295.875 254.147 301.855C254.147 301.855 254.113 301.888 254.08 301.888L202.384 237.47L245.209 242.187C245.209 242.187 265.775 244.314 270.459 242.187C274.745 240.492 297.868 207.934 297.868 207.934C297.868 207.934 231.488 165.972 208.796 142.85C211.388 103.878 205.807 52.0495 205.807 52.4815C189.095 69.1602 186.969 71.7508 170.257 87.1668C162.981 63.6122 159.56 55.4722 152.284 31.9162C130.423 49.8908 113.745 80.3229 101.751 115.872C99.1268 118.762 96.6014 121.819 94.1108 125.075C92.4828 127.234 90.8534 129.427 89.2921 131.686C86.0694 136.271 82.9801 141.088 80.0241 146.138C77.9308 149.694 75.8708 153.348 73.8774 157.068C59.9561 183.215 48.5281 213.183 38.6268 240.16C38.5601 240.06 38.4948 239.927 38.4614 239.828C28.6268 219.528 23.3774 197.103 23.3774 174.112C23.3774 134.111 39.2588 95.7722 67.5321 67.4989C95.8041 39.2255 134.144 23.3455 174.112 23.3455C214.112 23.3455 252.452 39.2255 280.725 67.4989C308.965 95.7722 324.845 134.111 324.845 174.112Z" fill="#DD1100"/>
<path fill-rule="evenodd" clip-rule="evenodd" d="M197.667 135.141C191.255 128.696 178.398 120.556 178.398 120.556C178.398 120.556 175.839 105.573 174.111 100.024C185.674 88.8611 187.4 87.1664 198.531 76.4691C199.395 97.8651 198.963 108.994 197.667 135.141Z" fill="white"/>
<path fill-rule="evenodd" clip-rule="evenodd" d="M206.671 180.092C198.963 182.219 198.099 182.651 190.391 184.81C182.252 180.092 174.976 177.534 168.132 178.364C168.996 174.112 170.257 171.088 171.553 167.235C186.105 165.108 196.803 172.816 206.671 180.092Z" fill="white"/>
<path fill-rule="evenodd" clip-rule="evenodd" d="M206.671 180.092C198.963 182.219 198.099 182.651 190.391 184.81C182.252 180.092 174.976 177.534 168.132 178.364C168.996 174.112 170.257 171.088 171.553 167.235C186.105 165.108 196.803 172.816 206.671 180.092Z" fill="black"/>
<path fill-rule="evenodd" clip-rule="evenodd" d="M202.385 237.469L254.081 301.889C254.113 301.889 254.146 301.856 254.146 301.856L202.385 237.469ZM38.4607 239.828C38.494 239.928 38.5607 240.06 38.6274 240.16C48.5274 213.183 59.9567 183.216 73.8767 157.069C59.8567 183.116 48.3287 212.984 38.4607 239.828" fill="#000222"/>
<path fill-rule="evenodd" clip-rule="evenodd" d="M280.725 280.692C272.618 288.799 263.714 295.875 254.146 301.855C254.146 301.855 254.113 301.888 254.08 301.888L202.385 237.47L245.209 242.187C245.209 242.187 265.775 244.314 270.459 242.187C274.745 240.492 297.868 207.934 297.868 207.934C297.868 207.934 231.488 165.972 208.797 142.85C211.388 103.878 205.807 52.0496 205.807 52.4816C189.096 69.1603 186.969 71.751 170.259 87.167C162.983 63.6123 159.56 55.4723 152.284 31.9163C130.424 49.891 113.745 80.323 101.752 115.872C99.1265 118.762 96.6025 121.819 94.1105 125.075C92.4825 127.234 90.8545 129.427 89.2932 131.686C86.0705 136.271 82.9798 141.088 80.0238 146.138C77.9305 149.694 75.8705 153.348 73.8772 157.068C73.0132 158.696 72.1492 160.358 71.2865 162.019C58.5278 186.936 47.8972 214.878 38.6278 240.16C38.5612 240.06 38.4945 239.927 38.4612 239.828C28.6265 219.528 23.3772 197.103 23.3772 174.112C23.3772 134.111 39.2585 95.7723 67.5318 67.499C95.8052 39.2256 134.144 23.3456 174.112 23.3456C214.113 23.3456 252.452 39.2256 280.725 67.499C308.965 95.7723 324.845 134.111 324.845 174.112C324.845 214.08 308.965 252.419 280.725 280.692ZM174.112 100.024C185.673 88.8616 187.401 87.167 198.531 76.4696C199.395 97.8643 198.962 108.995 197.666 135.142C191.254 128.696 178.397 120.556 178.397 120.556C178.397 120.556 175.84 105.572 174.112 100.024ZM227.635 315.843C135.273 349.232 68.5278 287.768 54.2758 266.274C54.3425 266.074 54.3745 265.908 54.4078 265.708C67.2332 211.488 83.0465 146.603 108.596 127.434C121.885 104.276 125.739 70.0243 149.693 52.0496C155.707 70.0243 165.141 107.3 171.553 125.274C199.827 153.547 242.652 188.664 271.322 203.216C274.313 204.943 278.166 216.936 278.166 216.936L266.605 231.488L143.281 219.063C140.523 218.831 137.765 218.731 135.008 218.731C127.101 218.731 118.994 219.628 109.46 221.19C115.44 206.206 128.297 194.212 128.297 194.212C128.297 194.212 116.304 186.936 107.3 185.674C109.892 179.66 116.736 171.952 118.463 169.827C115.008 171.088 90.1905 182.219 87.5985 191.654C99.5918 194.644 108.164 198.498 108.164 198.498C108.164 198.498 94.9078 211.787 92.3158 234.911C92.3158 234.911 131.719 228.898 161.288 232.751C162.118 233.183 162.551 233.183 162.983 233.183L178.397 233.615L227.369 315.144L227.768 315.776C227.701 315.81 227.668 315.843 227.635 315.843V315.843ZM292.52 55.7043C261.124 24.3083 218.53 6.66697 174.112 6.66697C129.725 6.66697 87.1332 24.3083 55.7038 55.7043C24.3078 87.1003 6.6665 129.692 6.6665 174.112C6.6665 218.499 24.3078 261.091 55.7038 292.487C87.1332 323.916 129.725 341.558 174.112 341.558C218.53 341.558 261.124 323.916 292.52 292.487C323.916 261.091 341.557 218.499 341.557 174.112C341.557 129.692 323.916 87.1003 292.52 55.7043" fill="black"/>
<path fill-rule="evenodd" clip-rule="evenodd" d="M171.554 167.235C186.106 165.108 196.803 172.816 206.671 180.092C198.963 182.219 198.099 182.651 190.391 184.81C182.251 180.092 174.975 177.534 168.131 178.364C168.995 174.112 170.258 171.088 171.554 167.235ZM109.459 221.19C118.995 219.628 127.1 218.731 135.008 218.731C137.766 218.731 140.523 218.831 143.28 219.063L266.606 231.488L278.167 216.936C278.167 216.936 274.314 204.943 271.323 203.215C242.651 188.664 199.827 153.547 171.554 125.274C165.142 107.3 155.706 70.0243 149.692 52.0496C125.739 70.0243 121.884 104.276 108.595 127.434C83.0471 146.603 67.2325 211.488 54.4085 265.708C54.3751 265.908 54.3418 266.074 54.2751 266.274C68.5285 287.768 135.274 349.232 227.635 315.843C227.667 315.843 227.7 315.81 227.767 315.776L227.368 315.144L178.398 233.615L162.982 233.183C162.55 233.183 162.118 233.183 161.287 232.751C131.719 228.898 92.3165 234.911 92.3165 234.911C94.9071 211.787 108.163 198.498 108.163 198.498C108.163 198.498 99.5925 194.644 87.5991 191.654C90.1898 182.219 115.007 171.088 118.463 169.826C116.735 171.952 109.891 179.66 107.3 185.674C116.303 186.936 128.296 194.212 128.296 194.212C128.296 194.212 115.439 206.206 109.459 221.19" fill="white"/>
<path d="M422.745 35.1457H442.199L459.847 117.274L473.465 35.1457H490.002L470.409 140.618H451.371L432.471 53.767L413.573 140.618H394.535L374.939 35.1457H391.477L405.097 117.274L422.745 35.1457Z" fill="black"/>
<path d="M494.027 104.628C494.027 83.2276 500.142 68.2196 524.879 68.2196C549.612 68.2196 555.726 83.2276 555.726 104.628C555.726 126.029 549.612 141.036 524.879 141.036C500.142 141.036 494.027 126.029 494.027 104.628ZM540.024 104.628C540.024 89.7596 538.079 81.2823 524.879 81.2823C511.675 81.2823 509.728 89.7596 509.728 104.628C509.728 119.497 511.675 127.974 524.879 127.974C538.079 127.974 540.024 119.497 540.024 104.628Z" fill="black"/>
<path d="M567.671 122.276V35.1445H583.235V122.138C583.235 126.03 584.625 127.416 589.073 127.416V140.064C589.073 140.064 587.682 140.342 586.014 140.342C573.37 140.342 567.671 134.227 567.671 122.276Z" fill="black"/>
<path d="M647.433 48.3473C644.932 47.514 642.013 46.958 637.15 46.958C630.201 46.958 624.642 49.598 624.642 57.5193V69.8887H644.237V83.0887H624.642V139.369H609.08V83.0887H596.432V73.5007L609.08 69.8887V56.13C609.08 41.2593 617.417 33.478 636.038 33.478C640.625 33.478 644.793 34.174 647.433 35.1473V48.3473Z" fill="black"/>
<path d="M693.288 82.3935C691.618 81.8375 688.84 81.5602 685.644 81.5602C677.445 81.5602 671.33 83.5055 667.857 85.7295V139.368H652.294V69.8882H661.464L663.966 75.4442C669.108 71.2775 676.889 68.2202 685.922 68.2202C688.84 68.2202 691.342 68.6375 693.288 69.0535V82.3935Z" fill="black"/>
<path d="M725.247 81.5597C716.215 81.5597 708.851 83.6436 703.569 85.7303V72.249C708.988 69.8877 718.159 68.2196 726.359 68.2196C749.149 68.2196 754.431 78.225 754.431 92.9543V139.368H745.257L742.756 133.81C737.197 138.396 729.417 141.036 721.773 141.036C703.847 141.036 697.871 129.921 697.871 118.802C697.871 103.793 707.599 97.3997 723.301 96.149L738.864 94.901V91.4263C738.864 84.3383 735.529 81.5597 725.247 81.5597ZM724.275 107.269C717.325 108.102 713.296 110.741 713.296 117.968C713.296 123.248 715.52 128.252 723.996 128.252C730.251 128.252 734.557 126.445 738.864 123.665V105.601L724.275 107.269Z" fill="black"/>
<path d="M849.337 90.3146C849.337 83.7826 845.584 81.4213 839.471 81.4213C832.661 81.4213 828.076 83.5053 824.463 85.7293C824.74 88.2306 824.879 90.5919 824.879 93.3706V139.371H809.315V90.3146C809.315 83.7826 805.703 81.4213 799.451 81.4213C793.055 81.4213 788.471 83.3653 784.859 85.4519V139.371H769.293V69.8879H778.465L780.965 75.4453C786.803 70.8599 795.141 68.2199 801.949 68.2199C811.259 68.2199 816.819 70.8599 819.736 75.1666C825.991 70.7213 834.328 68.2199 841.972 68.2199C858.369 68.2199 864.901 77.1146 864.901 90.3146V139.371H849.337V90.3146Z" fill="black"/>
<path d="M390.454 264.025H435.757V278.339H374.89V174.115H390.454V264.025Z" fill="black"/>
<path d="M466.184 220.529C457.15 220.529 449.785 222.613 444.506 224.7V211.218C449.925 208.857 459.096 207.189 467.296 207.189C490.086 207.189 495.368 217.194 495.368 231.924V278.337H486.194L483.693 272.78C478.134 277.365 470.354 280.005 462.71 280.005C444.784 280.005 438.808 268.89 438.808 257.772C438.808 242.762 448.536 236.369 464.238 235.118L479.801 233.87V230.396C479.801 223.308 476.466 220.529 466.184 220.529ZM465.212 246.238C458.262 247.072 454.233 249.71 454.233 256.937C454.233 262.217 456.456 267.221 464.933 267.221C471.188 267.221 475.494 265.414 479.801 262.634V244.57L465.212 246.238Z" fill="black"/>
<path d="M552.754 278.338V230.674C552.754 223.586 549.139 220.389 541.774 220.389C534.55 220.389 529.546 222.335 525.795 224.419V278.338H510.23V208.855H519.402L521.902 214.414C528.99 209.55 536.911 207.189 544.415 207.189C562.065 207.189 568.317 215.943 568.317 229.282V278.338H552.754Z" fill="black"/>
<path d="M609.445 259.995C606.525 259.995 603.746 259.856 601.385 259.439C600.273 260.551 599.439 262.079 599.439 263.468C599.439 265.832 600.69 267.083 603.607 267.499L628.761 270.556C642.519 272.223 647.382 278.475 647.382 290.011C647.382 307.936 628.482 314.747 608.333 314.747C589.713 314.747 576.231 308.771 576.231 294.459C576.231 285.007 583.319 279.45 590.685 277.227V277.088C587.211 275.143 585.266 271.251 585.266 267.499C585.266 262.356 588.321 258.743 591.518 256.242C583.597 251.796 580.402 243.736 580.402 233.591C580.402 217.75 588.183 207.188 609.445 207.188C614.449 207.188 618.617 207.744 622.229 208.855H646.27V218.722L636.403 221.5C637.793 225.115 638.487 229.143 638.487 233.591C638.487 249.432 630.706 259.995 609.445 259.995ZM604.579 280.422C597.494 281.672 591.102 284.868 591.102 291.539C591.102 299.322 596.661 302.378 609.445 302.378C621.675 302.378 632.373 298.766 632.373 290.427C632.373 285.704 630.011 283.62 624.313 282.923L604.579 280.422ZM609.445 247.628C621.117 247.628 623.759 241.512 623.759 233.591C623.759 225.671 621.117 219.555 609.445 219.555C597.773 219.555 595.13 225.671 595.13 233.591C595.13 241.512 597.773 247.628 609.445 247.628" fill="black"/>
<path d="M670.862 208.856V256.52C670.862 263.608 674.474 266.803 681.84 266.803C689.066 266.803 694.07 264.859 697.82 262.775V208.856H713.386V278.339H704.212L701.712 272.78C694.624 277.641 686.705 280.004 679.2 280.004C661.552 280.004 655.298 271.251 655.298 257.909V208.856H670.862Z" fill="black"/>
<path d="M750.76 220.529C741.726 220.529 734.361 222.613 729.082 224.7V211.218C734.5 208.857 743.672 207.189 751.872 207.189C774.662 207.189 779.944 217.194 779.944 231.924V278.337H770.77L768.269 272.78C762.71 277.365 754.93 280.005 747.286 280.005C729.36 280.005 723.384 268.89 723.384 257.772C723.384 242.762 733.11 236.369 748.814 235.118L764.377 233.87V230.396C764.377 223.308 761.042 220.529 750.76 220.529ZM749.788 246.238C742.838 247.072 738.809 249.71 738.809 256.937C738.809 262.217 741.033 267.221 749.509 267.221C755.764 267.221 760.07 265.414 764.377 262.634V244.57L749.788 246.238Z" fill="black"/>
<path d="M821.21 259.995C818.293 259.995 815.511 259.856 813.15 259.439C812.038 260.551 811.205 262.079 811.205 263.468C811.205 265.832 812.455 267.083 815.373 267.499L840.526 270.556C854.285 272.223 859.147 278.475 859.147 290.011C859.147 307.936 840.247 314.747 820.098 314.747C801.478 314.747 787.997 308.771 787.997 294.459C787.997 285.007 795.085 279.45 802.45 277.227V277.088C798.977 275.143 797.031 271.251 797.031 267.499C797.031 262.356 800.086 258.743 803.283 256.242C795.362 251.796 792.167 243.736 792.167 233.591C792.167 217.75 799.949 207.188 821.21 207.188C826.214 207.188 830.382 207.744 833.994 208.855H858.035V218.722L848.169 221.5C849.558 225.115 850.253 229.143 850.253 233.591C850.253 249.432 842.47 259.995 821.21 259.995ZM816.345 280.422C809.259 281.672 802.866 284.868 802.866 291.539C802.866 299.322 808.426 302.378 821.21 302.378C833.441 302.378 844.138 298.766 844.138 290.427C844.138 285.704 841.775 283.62 836.079 282.923L816.345 280.422ZM821.21 247.628C832.882 247.628 835.525 241.512 835.525 233.591C835.525 225.671 832.882 219.555 821.21 219.555C809.538 219.555 806.895 225.671 806.895 233.591C806.895 241.512 809.538 247.628 821.21 247.628" fill="black"/>
<path d="M896.523 207.188C920.979 207.188 924.871 223.308 924.871 242.485C924.871 244.847 924.729 247.069 924.593 249.295H881.375C881.652 259.717 885.405 266.524 899.579 266.524C908.333 266.524 915.56 264.999 921.676 262.356V275.696C913.755 279.032 904.721 280.005 897.217 280.005C874.009 280.005 865.672 266.108 865.672 243.596C865.672 221.224 873.871 207.188 896.523 207.188ZM881.375 238.456H909.168C909.168 229.004 908.612 220.669 896.523 220.669C885.125 220.669 881.931 228.032 881.375 238.456Z" fill="black"/>
<path d="M936.483 193.739H940.821L944.829 204.071L948.764 193.739H953.103V209.035H950.308V197.341H950.235L945.933 209.035H943.653L939.351 197.341H939.277V209.035H936.483V193.739ZM925.379 196.312H920.672V193.739H932.879V196.312H928.172V209.035H925.379V196.312Z" fill="black"/>
</svg>
